<svg width="40" height="30" viewBox="0 0 40 30" fill="none" xmlns="http://www.w3.org/2000/svg">
<g clip-path="url(#clip0)">
<path d="M39.1804 20.36H35.9004C38.5204 18.34 39.0104 14.57 36.9804 11.95C35.9804 10.65 34.4904 9.82 32.8604 9.65V8.67H34.8304V7.37H20.7004V6.52V4.78C21.9904 4.39 22.7304 3.03 22.3404 1.74C21.9504 0.449999 20.5904 -0.290001 19.3004 0.0999991C18.0104 0.489999 17.2704 1.85 17.6604 3.14C17.9004 3.93 18.5104 4.55 19.3004 4.78V6.72V7.37H5.17043V8.67H7.15043V9.63C7.06043 9.69 6.98043 9.75 6.91043 9.82L2.44043 14.62C2.22043 14.87 2.09043 15.19 2.08043 15.52V20.35H0.82043C0.47043 20.35 0.19043 20.63 0.19043 20.98C0.19043 21.33 0.47043 21.61 0.82043 21.61H14.7304C15.0804 21.61 15.3604 21.33 15.3604 20.98C15.3604 20.63 15.0804 20.35 14.7304 20.35H13.4704V15.52C13.4604 15.19 13.3304 14.87 13.1104 14.63L8.57043 9.79C8.52043 9.74 8.47043 9.7 8.41043 9.66V8.67H19.3004V17.44C18.3404 17.44 17.5604 18.22 17.5604 19.18V28.6H16.2104C15.8204 28.6 15.5104 28.91 15.5104 29.3C15.5104 29.69 15.8204 30 16.2104 30H23.7904C24.1804 30 24.4904 29.69 24.4904 29.3C24.4904 28.91 24.1804 28.6 23.7904 28.6H22.4404V19.18C22.4404 18.22 21.6604 17.44 20.7004 17.44V8.67H31.6004V9.64C28.3004 9.98 25.9104 12.94 26.2604 16.23C26.4304 17.86 27.2604 19.35 28.5604 20.35H25.2804C24.9304 20.35 24.6504 20.63 24.6504 20.98C24.6504 21.33 24.9304 21.61 25.2804 21.61H39.1904C39.5404 21.61 39.8204 21.33 39.8204 20.98C39.8104 20.64 39.5304 20.36 39.1804 20.36ZM12.1804 15.49C12.1904 15.5 12.2004 15.54 12.2004 15.52V20.35H9.67043V17.42C9.67043 16.82 9.19043 16.8 8.59043 16.8H6.96043C6.36043 16.8 5.87043 16.82 5.87043 17.42V19.23C5.87043 19.58 6.15043 19.86 6.50043 19.86C6.85043 19.86 7.13043 19.58 7.13043 19.23V17.9H8.39043V20.35H3.35043V15.54C3.35043 15.52 3.37043 15.49 3.37043 15.48L7.76043 10.76L12.1804 15.49ZM21.0504 19.19V28.61H18.9604V19.19C18.9604 19 19.1204 18.84 19.3104 18.84H20.7104C20.8904 18.84 21.0504 18.99 21.0504 19.19ZM20.0004 3.49C19.4204 3.49 18.9504 3.02 18.9504 2.44C18.9504 1.86 19.4204 1.39 20.0004 1.39C20.5804 1.39 21.0504 1.86 21.0504 2.44C21.0504 3.02 20.5804 3.49 20.0004 3.49ZM32.2304 20.36C29.6104 20.36 27.4904 18.24 27.4904 15.62C27.4904 13 29.6104 10.88 32.2304 10.88C34.8504 10.88 36.9704 13 36.9704 15.62C36.9704 18.24 34.8404 20.36 32.2304 20.36Z" fill="#FFFFFF"/>
<path d="M32.2302 13.98C32.4802 13.98 32.7102 14.17 32.7502 14.42L32.8002 14.72H33.9702L33.9302 14.32C33.8702 13.72 33.4602 13.17 32.8902 12.93L32.8202 12.9V12.05H31.6402V12.9L31.5702 12.93C30.9402 13.2 30.5202 13.82 30.5202 14.5C30.5202 15.44 31.2902 16.21 32.2302 16.21C32.5202 16.21 32.7502 16.45 32.7502 16.73C32.7502 17.02 32.5102 17.26 32.2302 17.26C31.9702 17.26 31.7502 17.07 31.7102 16.82L31.6602 16.52H30.4902L30.5302 16.92C30.5902 17.52 31.0002 18.07 31.5702 18.31L31.6402 18.34V19.19H32.8202V18.34L32.8902 18.31C33.5202 18.04 33.9402 17.41 33.9402 16.74C33.9402 15.8 33.1702 15.03 32.2302 15.03C31.9402 15.03 31.7102 14.79 31.7102 14.5C31.7002 14.21 31.9402 13.98 32.2302 13.98Z" fill="#FFFFFF"/>
</g>
<defs>
<clipPath id="clip0">
<rect width="40" height="30" fill="white"/>
</clipPath>
</defs>
</svg>
