<svg width="40" height="30" viewBox="0 0 40 30" fill="none" xmlns="http://www.w3.org/2000/svg">
<path d="M34.9405 13.96C34.4405 6.53 28.4505 0.54 21.0205 0.04L20.4805 0V14.5H34.9805L34.9405 13.96ZM21.4805 13.5V1.08C22.7205 1.21 23.9105 1.51 25.0305 1.95C25.0305 1.97 25.0205 1.98 25.0205 2C25.0205 2.28 25.2405 2.5 25.5205 2.5C25.6705 2.5 25.8005 2.43 25.8905 2.32C28.3605 3.48 30.4305 5.34 31.8705 7.64C31.7805 7.55 31.6605 7.5 31.5205 7.5C31.2405 7.5 31.0205 7.72 31.0205 8C31.0205 8.28 31.2405 8.5 31.5205 8.5C31.8005 8.5 32.0205 8.28 32.0205 8C32.0205 7.94 32.0105 7.87 31.9805 7.82C32.2405 8.25 32.4605 8.69 32.6805 9.14C32.5805 9.23 32.5205 9.36 32.5205 9.5C32.5205 9.78 32.7405 10 33.0205 10C33.0305 10 33.0405 9.99 33.0505 9.99C33.4805 11.1 33.7705 12.27 33.9005 13.5C33.9005 13.5 21.4805 13.5 21.4805 13.5Z" fill="#FFFFFF"/>
<path d="M20.6406 15.5L30.6906 25.55L31.0406 25.17C33.3506 22.67 34.7506 19.42 34.9806 16.04L35.0206 15.51C35.0206 15.5 20.6406 15.5 20.6406 15.5ZM30.6606 24.1L23.0606 16.5H33.9406C33.6406 19.29 32.4906 21.95 30.6606 24.1Z" fill="#FFFFFF"/>
<path d="M22.5205 2.5C22.7967 2.5 23.0205 2.27614 23.0205 2C23.0205 1.72386 22.7967 1.5 22.5205 1.5C22.2444 1.5 22.0205 1.72386 22.0205 2C22.0205 2.27614 22.2444 2.5 22.5205 2.5Z" fill="#FFFFFF"/>
<path d="M22.5205 5.5C22.7967 5.5 23.0205 5.27614 23.0205 5C23.0205 4.72386 22.7967 4.5 22.5205 4.5C22.2444 4.5 22.0205 4.72386 22.0205 5C22.0205 5.27614 22.2444 5.5 22.5205 5.5Z" fill="#FFFFFF"/>
<path d="M24.0205 4C24.2967 4 24.5205 3.77614 24.5205 3.5C24.5205 3.22386 24.2967 3 24.0205 3C23.7444 3 23.5205 3.22386 23.5205 3.5C23.5205 3.77614 23.7444 4 24.0205 4Z" fill="#FFFFFF"/>
<path d="M27.0205 4C27.2967 4 27.5205 3.77614 27.5205 3.5C27.5205 3.22386 27.2967 3 27.0205 3C26.7444 3 26.5205 3.22386 26.5205 3.5C26.5205 3.77614 26.7444 4 27.0205 4Z" fill="#FFFFFF"/>
<path d="M25.5205 5.5C25.7967 5.5 26.0205 5.27614 26.0205 5C26.0205 4.72386 25.7967 4.5 25.5205 4.5C25.2444 4.5 25.0205 4.72386 25.0205 5C25.0205 5.27614 25.2444 5.5 25.5205 5.5Z" fill="#FFFFFF"/>
<path d="M28.5205 5.5C28.7967 5.5 29.0205 5.27614 29.0205 5C29.0205 4.72386 28.7967 4.5 28.5205 4.5C28.2444 4.5 28.0205 4.72386 28.0205 5C28.0205 5.27614 28.2444 5.5 28.5205 5.5Z" fill="#FFFFFF"/>
<path d="M30.0205 7C30.2967 7 30.5205 6.77614 30.5205 6.5C30.5205 6.22386 30.2967 6 30.0205 6C29.7444 6 29.5205 6.22386 29.5205 6.5C29.5205 6.77614 29.7444 7 30.0205 7Z" fill="#FFFFFF"/>
<path d="M24.0205 7C24.2967 7 24.5205 6.77614 24.5205 6.5C24.5205 6.22386 24.2967 6 24.0205 6C23.7444 6 23.5205 6.22386 23.5205 6.5C23.5205 6.77614 23.7444 7 24.0205 7Z" fill="#FFFFFF"/>
<path d="M27.0205 7C27.2967 7 27.5205 6.77614 27.5205 6.5C27.5205 6.22386 27.2967 6 27.0205 6C26.7444 6 26.5205 6.22386 26.5205 6.5C26.5205 6.77614 26.7444 7 27.0205 7Z" fill="#FFFFFF"/>
<path d="M30.0205 10C30.2967 10 30.5205 9.77614 30.5205 9.5C30.5205 9.22386 30.2967 9 30.0205 9C29.7444 9 29.5205 9.22386 29.5205 9.5C29.5205 9.77614 29.7444 10 30.0205 10Z" fill="#FFFFFF"/>
<path d="M31.5205 11.5C31.7967 11.5 32.0205 11.2761 32.0205 11C32.0205 10.7239 31.7967 10.5 31.5205 10.5C31.2444 10.5 31.0205 10.7239 31.0205 11C31.0205 11.2761 31.2444 11.5 31.5205 11.5Z" fill="#FFFFFF"/>
<path d="M22.5205 8.5C22.7967 8.5 23.0205 8.27614 23.0205 8C23.0205 7.72386 22.7967 7.5 22.5205 7.5C22.2444 7.5 22.0205 7.72386 22.0205 8C22.0205 8.27614 22.2444 8.5 22.5205 8.5Z" fill="#FFFFFF"/>
<path d="M22.5205 11.5C22.7967 11.5 23.0205 11.2761 23.0205 11C23.0205 10.7239 22.7967 10.5 22.5205 10.5C22.2444 10.5 22.0205 10.7239 22.0205 11C22.0205 11.2761 22.2444 11.5 22.5205 11.5Z" fill="#FFFFFF"/>
<path d="M24.0205 10C24.2967 10 24.5205 9.77614 24.5205 9.5C24.5205 9.22386 24.2967 9 24.0205 9C23.7444 9 23.5205 9.22386 23.5205 9.5C23.5205 9.77614 23.7444 10 24.0205 10Z" fill="#FFFFFF"/>
<path d="M27.0205 10C27.2967 10 27.5205 9.77614 27.5205 9.5C27.5205 9.22386 27.2967 9 27.0205 9C26.7444 9 26.5205 9.22386 26.5205 9.5C26.5205 9.77614 26.7444 10 27.0205 10Z" fill="#FFFFFF"/>
<path d="M25.5205 8.5C25.7967 8.5 26.0205 8.27614 26.0205 8C26.0205 7.72386 25.7967 7.5 25.5205 7.5C25.2444 7.5 25.0205 7.72386 25.0205 8C25.0205 8.27614 25.2444 8.5 25.5205 8.5Z" fill="#FFFFFF"/>
<path d="M28.5205 8.5C28.7967 8.5 29.0205 8.27614 29.0205 8C29.0205 7.72386 28.7967 7.5 28.5205 7.5C28.2444 7.5 28.0205 7.72386 28.0205 8C28.0205 8.27614 28.2444 8.5 28.5205 8.5Z" fill="#FFFFFF"/>
<path d="M25.5205 11.5C25.7967 11.5 26.0205 11.2761 26.0205 11C26.0205 10.7239 25.7967 10.5 25.5205 10.5C25.2444 10.5 25.0205 10.7239 25.0205 11C25.0205 11.2761 25.2444 11.5 25.5205 11.5Z" fill="#FFFFFF"/>
<path d="M28.5205 11.5C28.7967 11.5 29.0205 11.2761 29.0205 11C29.0205 10.7239 28.7967 10.5 28.5205 10.5C28.2444 10.5 28.0205 10.7239 28.0205 11C28.0205 11.2761 28.2444 11.5 28.5205 11.5Z" fill="#FFFFFF"/>
<path d="M33.0205 13C33.2967 13 33.5205 12.7761 33.5205 12.5C33.5205 12.2239 33.2967 12 33.0205 12C32.7444 12 32.5205 12.2239 32.5205 12.5C32.5205 12.7761 32.7444 13 33.0205 13Z" fill="#FFFFFF"/>
<path d="M30.0205 13C30.2967 13 30.5205 12.7761 30.5205 12.5C30.5205 12.2239 30.2967 12 30.0205 12C29.7444 12 29.5205 12.2239 29.5205 12.5C29.5205 12.7761 29.7444 13 30.0205 13Z" fill="#FFFFFF"/>
<path d="M24.0205 13C24.2967 13 24.5205 12.7761 24.5205 12.5C24.5205 12.2239 24.2967 12 24.0205 12C23.7444 12 23.5205 12.2239 23.5205 12.5C23.5205 12.7761 23.7444 13 24.0205 13Z" fill="#FFFFFF"/>
<path d="M27.0205 13C27.2967 13 27.5205 12.7761 27.5205 12.5C27.5205 12.2239 27.2967 12 27.0205 12C26.7444 12 26.5205 12.2239 26.5205 12.5C26.5205 12.7761 26.7444 13 27.0205 13Z" fill="#FFFFFF"/>
<path d="M19.4805 0L18.9505 0.04C11.1205 0.57 4.98047 7.14 4.98047 15C4.98047 18.62 6.29047 22.12 8.67047 24.85L9.02047 25.25L19.4805 14.79V0ZM18.4805 14.38L9.08047 23.78C7.08047 21.3 5.98047 18.2 5.98047 15C5.98047 7.85 11.4305 1.84 18.4805 1.08V14.38Z" fill="#FFFFFF"/>
<path d="M9.73047 25.96L10.1305 26.31C12.8605 28.69 16.3605 30 19.9805 30C23.4405 30 26.8205 28.79 29.5005 26.59L29.9305 26.24L19.6905 16L9.73047 25.96ZM19.6905 17.41L20.2405 17.96L11.8405 26.36C11.6305 26.21 11.4105 26.06 11.2105 25.89L19.6905 17.41ZM15.5805 28.28C15.2305 28.16 14.8905 28.03 14.5505 27.89L22.3605 20.08L23.0705 20.79L15.5805 28.28ZM23.7805 21.5L24.4905 22.21L17.8705 28.83C17.4705 28.77 17.0805 28.69 16.6905 28.6L23.7805 21.5ZM13.5905 27.44C13.2805 27.28 12.9805 27.11 12.6805 26.93L20.9405 18.67L21.6505 19.38L13.5905 27.44ZM19.1405 28.96L25.1905 22.91L25.9005 23.62L20.5405 28.98C20.3605 28.98 20.1705 29 19.9805 29C19.7005 29 19.4205 28.98 19.1405 28.96ZM26.6005 24.33L27.3105 25.04L23.9305 28.42C23.3305 28.6 22.7205 28.74 22.1005 28.84L26.6005 24.33ZM26.2605 27.5L28.0205 25.74L28.4305 26.15C27.7505 26.67 27.0205 27.12 26.2605 27.5Z" fill="#FFFFFF"/>
</svg>
