<svg width="40" height="30" viewBox="0 0 40 30" fill="none" xmlns="http://www.w3.org/2000/svg">
<g clip-path="url(#clip0)">
<path d="M13.4199 17.58C12.8599 17.84 12.6299 17.8 12.2199 17.4C10.4999 15.69 8.78986 13.97 7.07986 12.25C6.69986 11.87 6.65986 11.64 6.91986 11.08C6.17986 10.9 5.44986 10.72 4.71986 10.55C4.43986 10.48 4.14986 10.4 3.86986 10.35C3.53986 10.27 3.29986 10.1 3.21986 9.77C3.12986 9.45 3.26986 9.19 3.50986 8.96C4.78986 7.75 6.32986 7 8.02986 6.62C9.02986 6.39 10.0599 6.3 11.0799 6.16C11.3099 6.13 11.4799 6.06 11.6499 5.88C14.3799 2.98 17.6599 1.04 21.5699 0.230002C22.2499 0.090002 22.9599 0.050002 23.6599 1.95135e-06C24.1999 -0.039998 24.5199 0.290002 24.4999 0.840002C24.4499 2.76 23.9599 4.58 23.2099 6.33C22.1199 8.86 20.5699 11.06 18.5499 12.93C18.4299 13.04 18.3599 13.27 18.3499 13.45C18.2599 15 17.9799 16.51 17.4199 17.96C16.9799 19.07 16.3899 20.08 15.5699 20.95C15.3399 21.2 15.0699 21.36 14.7299 21.27C14.3899 21.18 14.2299 20.93 14.1599 20.59C13.9199 19.6 13.6699 18.6 13.4199 17.58ZM12.9499 15.94C13.5399 15.41 14.1399 14.89 14.7199 14.35C16.0999 13.07 17.5499 11.84 18.8299 10.47C20.7999 8.35 22.0799 5.83 22.7299 3C22.8399 2.53 22.8899 2.05 22.9699 1.55C22.6799 1.58 22.4599 1.6 22.2399 1.64C19.1299 2.19 16.3999 3.55 14.0699 5.65C12.9099 6.7 11.8899 7.9 10.8199 9.05C10.0499 9.88 9.29986 10.73 8.55986 11.56C10.0299 13.01 11.4799 14.46 12.9499 15.94ZM9.87986 7.83C8.81986 7.79 6.27986 8.63 5.66986 9.23C6.45986 9.42 7.20986 9.6 7.96986 9.77C8.03986 9.79 8.15986 9.75 8.20986 9.69C8.76986 9.08 9.30986 8.47 9.87986 7.83ZM16.6399 14.64C16.1299 15.1 15.6399 15.59 15.0999 16.01C14.7399 16.29 14.6899 16.56 14.8099 16.96C14.9899 17.57 15.1199 18.19 15.2899 18.88C16.1199 17.53 16.5099 16.14 16.6399 14.64Z" fill="#FFFFFF"/>
<path d="M33.69 8.37001C32.97 8.79001 32.26 9.21001 31.53 9.61001C31.02 9.89001 30.5 9.67001 30.37 9.14001C30.29 8.81001 30.44 8.51001 30.83 8.28001C31.88 7.67001 32.94 7.06001 33.99 6.45001C34.2 6.33001 34.41 6.19001 34.62 6.07001C35.01 5.86001 35.43 5.97001 35.65 6.35001C36.39 7.63001 37.13 8.92001 37.86 10.22C38.09 10.63 37.97 11.07 37.6 11.28C37.23 11.49 36.8 11.36 36.56 10.94C36.19 10.31 35.82 9.66001 35.45 9.03001C35.39 8.92001 35.31 8.82001 35.24 8.70001C34.88 9.64001 34.56 10.56 34.18 11.45C31.75 17.14 27.82 21.51 22.51 24.67C18.87 26.83 14.93 28.23 10.79 29.09C8.26 29.62 5.71 29.92 3.13 29.99C2.93 29.99 2.73 29.99 2.54 29.94C2.21 29.86 2 29.58 2 29.25C2 28.94 2.2 28.64 2.53 28.55C2.7 28.5 2.88 28.49 3.05 28.49C9.64 28.3 15.88 26.8 21.6 23.47C27.47 20.06 31.48 15.11 33.65 8.67001C33.67 8.60001 33.69 8.54001 33.71 8.47001C33.72 8.45001 33.7 8.43001 33.69 8.37001Z" fill="#FFFFFF"/>
<path d="M6.48031 14.61C8.20031 14.61 9.42031 15.54 9.79031 16.9C10.1603 18.26 9.60031 19.66 8.37031 20.37C6.93031 21.2 5.36031 21.69 3.80031 22.21C3.52031 22.3 3.25031 22.39 2.96031 22.47C2.39031 22.62 1.86031 22.12 2.03031 21.57C2.57031 19.81 3.14031 18.05 3.98031 16.4C4.57031 15.25 5.49031 14.65 6.48031 14.61ZM3.95031 20.49C3.98031 20.53 4.02031 20.57 4.05031 20.61C5.23031 20.11 6.41031 19.63 7.57031 19.09C8.19031 18.8 8.49031 18.1 8.38031 17.48C8.25031 16.75 7.75031 16.24 7.02031 16.11C6.40031 16 5.70031 16.31 5.41031 16.92C5.01031 17.74 4.68031 18.58 4.33031 19.42C4.18031 19.77 4.07031 20.14 3.95031 20.49Z" fill="#FFFFFF"/>
</g>
<defs>
<clipPath id="clip0">
<rect width="40" height="30" fill="white"/>
</clipPath>
</defs>
</svg>
