<svg width="40" height="30" viewBox="0 0 40 30" fill="none" xmlns="http://www.w3.org/2000/svg">
<g clip-path="url(#clip0)">
<path d="M24.7399 9.23C25.1399 8.94 25.4099 8.48 25.4099 7.94V7.14C25.4099 6.36 24.8399 5.72 24.0999 5.59C24.4999 4.92 25.1599 3.86 26.0999 2.49C26.7099 1.6 26.5099 1.02 26.2299 0.690001C25.1199 -0.649999 20.5099 0.400001 19.1199 1C18.3799 1.32 17.8799 1.04 17.1899 0.640001C16.5499 0.270001 15.8199 -0.139999 14.8599 0.0200009C14.4699 0.0900009 14.1899 0.310001 14.0599 0.650001C13.6799 1.69 15.1599 3.89 16.4599 5.56H16.1599C15.2899 5.56 14.5899 6.27 14.5899 7.13V7.93C14.5899 8.46 14.8599 8.93 15.2599 9.22C11.3299 12.41 8.66992 18.96 8.66992 23.44C8.66992 30 14.1699 30 19.9999 30C25.8299 30 31.3299 30 31.3299 23.45C31.3299 18.97 28.6699 12.42 24.7399 9.23ZM23.1899 9.52C27.1899 12.08 30.1799 18.97 30.1799 23.45C30.1799 28.59 26.4999 28.84 20.0099 28.84C13.5099 28.84 9.83992 28.59 9.83992 23.45C9.83992 18.97 12.8199 12.08 16.8199 9.52H23.1899ZM16.1599 8.36C15.9299 8.36 15.7399 8.17 15.7399 7.94V7.14C15.7399 6.91 15.9299 6.72 16.1599 6.72H17.6599C17.6699 6.72 17.6699 6.72 17.6799 6.72C17.6799 6.72 17.6799 6.72 17.6899 6.72H23.8399C24.0699 6.72 24.2599 6.91 24.2599 7.14V7.94C24.2599 8.17 24.0699 8.36 23.8399 8.36H23.3499H16.6499H16.1599ZM17.9499 5.58C16.3299 3.61 15.1899 1.73 15.1399 1.17C15.6599 1.13 16.0999 1.37 16.6199 1.67C17.3799 2.1 18.3199 2.63 19.5799 2.08C21.3499 1.31 24.8999 0.920001 25.3299 1.43C25.3399 1.46 25.2999 1.61 25.1399 1.85C23.8699 3.71 23.0899 5.02 22.7699 5.58H17.9499Z" fill="#FFFFFF"/>
<path d="M22.4096 20.29C22.4096 18.96 21.3296 17.88 19.9996 17.88C19.4796 17.88 19.0596 17.46 19.0596 16.94C19.0596 16.42 19.4796 16 19.9996 16C20.4596 16 20.8496 16.34 20.9296 16.79L20.9796 17.12H22.4496L22.4096 16.69C22.3196 15.84 21.7396 15.07 20.9496 14.73L20.7496 14.65V13.42H19.2796V14.65L19.0796 14.73C18.1996 15.1 17.5996 15.99 17.5996 16.95C17.5996 18.28 18.6796 19.36 20.0096 19.36C20.5296 19.36 20.9496 19.78 20.9496 20.3C20.9496 20.82 20.5296 21.24 20.0096 21.24C19.5496 21.24 19.1596 20.9 19.0796 20.45L19.0296 20.12H17.5596L17.6096 20.55C17.6996 21.4 18.2796 22.18 19.0696 22.51L19.2696 22.59V23.82H20.7396V22.59L20.9396 22.51C21.8196 22.13 22.4096 21.24 22.4096 20.29Z" fill="#FFFFFF"/>
</g>
<defs>
<clipPath id="clip0">
<rect width="40" height="30" fill="white"/>
</clipPath>
</defs>
</svg>
