<svg width="40" height="30" viewBox="0 0 40 30" fill="none" xmlns="http://www.w3.org/2000/svg">
<g clip-path="url(#clip0)">
<path d="M10.3305 25.87C5.03047 20.57 5.03047 11.98 10.3305 6.68C15.3005 1.71 23.2405 1.36 28.6305 5.87L30.2605 4.24L29.2505 3.23C28.9705 2.95 28.9805 2.5 29.2505 2.22C29.5305 1.95 29.9705 1.95 30.2505 2.22L33.2705 5.24C33.5505 5.52 33.5405 5.97 33.2705 6.25C32.9905 6.52 32.5505 6.52 32.2705 6.25L31.2605 5.24L29.6605 6.84C34.9505 12.14 34.9505 20.73 29.6505 26.03C24.3505 31.33 15.7605 31.32 10.4605 26.02C10.4305 25.97 10.3805 25.92 10.3305 25.87ZM7.72047 16.28C7.72047 23.02 13.1905 28.49 19.9305 28.49C26.6705 28.49 32.1405 23.02 32.1405 16.28C32.1405 9.54 26.6705 4.07 19.9305 4.07C13.1905 4.07 7.72047 9.54 7.72047 16.28ZM16.5305 1.36C16.1605 1.36 15.8505 1.06 15.8505 0.68C15.8505 0.3 16.1605 0 16.5305 0H23.3105C23.6905 0 24.0005 0.3 24.0005 0.68C24.0005 1.06 23.7005 1.36 23.3205 1.36H16.5305Z" fill="#FFFFFF"/>
<path d="M22.7402 18.18C22.7402 16.67 21.5102 15.44 20.0002 15.44C19.4102 15.44 18.9402 14.96 18.9402 14.38C18.9402 13.79 19.4202 13.31 20.0002 13.31C20.5202 13.31 20.9702 13.7 21.0502 14.21L21.1102 14.58H22.7702L22.7202 14.09C22.6202 13.12 21.9702 12.25 21.0602 11.86L20.8402 11.77V10.37H19.1702V11.77L18.9502 11.86C17.9502 12.28 17.2702 13.29 17.2702 14.37C17.2702 15.88 18.5002 17.11 20.0102 17.11C20.6002 17.11 21.0702 17.59 21.0702 18.17C21.0702 18.76 20.5902 19.23 20.0102 19.23C19.4902 19.23 19.0402 18.84 18.9602 18.33L18.9002 17.96H17.2402L17.2902 18.45C17.3902 19.42 18.0402 20.3 18.9502 20.68L19.1702 20.77V22.17H20.8402V20.77L21.0702 20.68C22.0602 20.27 22.7402 19.26 22.7402 18.18Z" fill="#FFFFFF"/>
</g>
<defs>
<clipPath id="clip0">
<rect width="40" height="30" fill="white"/>
</clipPath>
</defs>
</svg>
