<svg width="40" height="30" viewBox="0 0 40 30" fill="none" xmlns="http://www.w3.org/2000/svg">
<path d="M3.30957 0V30H36.6996V0H3.30957ZM4.51957 6.72H35.4696V28.78H4.51957V6.72ZM35.4796 5.5H4.51957V1.22H35.4696V5.5H35.4796Z" fill="#FFFFFF"/>
<path d="M6.23926 13.43H11.4293V8.23999H6.23926V13.43ZM10.2093 9.45999V12.21H7.44926V9.45999H10.2093Z" fill="#FFFFFF"/>
<path d="M13.6494 13.43H18.8394V8.23999H13.6494V13.43V13.43ZM17.6194 9.45999V12.21H14.8694V9.45999H17.6194Z" fill="#FFFFFF"/>
<path d="M6.23926 20.19H11.4293V15H6.23926V20.19ZM10.2093 16.22V18.97H7.44926V16.22H10.2093Z" fill="#FFFFFF"/>
<path d="M13.6494 20.19H18.8394V15H13.6494V20.19V20.19ZM17.6194 16.22V18.97H14.8694V16.22H17.6194Z" fill="#FFFFFF"/>
<path d="M31.0895 19.62C31.0895 17.54 29.3995 15.85 27.3195 15.85C26.2595 15.85 25.3895 14.98 25.3895 13.92C25.3895 12.85 26.2595 11.99 27.3195 11.99C28.2595 11.99 29.0795 12.69 29.2295 13.61L29.2695 13.89H31.1095L31.0695 13.53C30.9295 12.2 30.0295 10.99 28.7795 10.46L28.2395 10.23V8.23999H26.3895V10.22L25.8495 10.45C24.4695 11.04 23.5395 12.43 23.5395 13.92C23.5395 16 25.2295 17.69 27.3095 17.69C28.3695 17.69 29.2395 18.56 29.2395 19.62C29.2395 20.68 28.3795 21.55 27.3095 21.55C26.3695 21.55 25.5495 20.85 25.3995 19.93L25.3595 19.65H23.5195L23.5595 20.01C23.6995 21.34 24.5995 22.55 25.8495 23.08L26.3895 23.31V25.29H28.2395V23.31L28.7795 23.08C30.1595 22.5 31.0895 21.11 31.0895 19.62Z" fill="#FFFFFF"/>
</svg>
