<svg width="40" height="30" viewBox="0 0 40 30" fill="none" xmlns="http://www.w3.org/2000/svg">
<path d="M26.6301 20.33C26.4501 20.33 26.2701 20.33 26.0801 20.33H26.0001C26.0001 20.32 26.0001 20.32 26.0001 20.31V19.78C26.0001 17.92 26.0001 16.06 26.0101 14.2C27.4701 12.69 28.3801 10.64 28.3801 8.38C28.3801 3.76 24.6201 0 20.0001 0C15.3801 0 11.6201 3.76 11.6201 8.38C11.6201 10.64 12.5201 12.69 13.9901 14.2C14.0001 15.77 14.0001 17.34 14.0001 18.91V20.33H13.3801C12.6201 20.33 12.0301 20.72 11.7701 21.39C11.5001 22.08 11.6701 22.76 12.2401 23.29C12.7401 23.76 13.2401 24.23 13.7401 24.7L15.0301 25.92C16.2801 27.1 17.5301 28.29 18.7901 29.46C19.0201 29.67 19.2901 29.84 19.5501 29.92C19.7001 29.97 19.8701 30 20.0301 30C20.4601 30 20.8701 29.81 21.2701 29.44C22.0001 28.74 22.7401 28.04 23.4801 27.35L25.2601 25.67C26.1101 24.87 26.9601 24.07 27.8001 23.26C28.3401 22.75 28.5001 22.04 28.2201 21.38C27.9701 20.73 27.3701 20.34 26.6301 20.33ZM20.0001 1.45C23.8201 1.45 26.9301 4.56 26.9301 8.38C26.9301 12.2 23.8201 15.31 20.0001 15.31C16.1801 15.31 13.0701 12.2 13.0701 8.38C13.0701 4.56 16.1801 1.45 20.0001 1.45ZM26.7801 22.26L22.6601 26.16C21.8701 26.91 21.0801 27.65 20.2801 28.4C20.0301 28.64 19.9801 28.64 19.7301 28.41C17.5601 26.36 15.4001 24.32 13.2301 22.27C13.0701 22.12 13.0401 22.04 13.0901 21.92C13.1401 21.79 13.2301 21.75 13.4201 21.75C13.7001 21.76 13.9801 21.76 14.2601 21.75H14.5201C15.1701 21.75 15.4301 21.5 15.4301 20.85V15.37C16.7501 16.23 18.3201 16.74 20.0101 16.74C21.7001 16.74 23.2701 16.23 24.5901 15.37V20.86C24.5901 21.49 24.8501 21.74 25.4801 21.74H25.7301C26.0101 21.74 26.2901 21.74 26.5701 21.74C26.7701 21.74 26.8601 21.78 26.9201 21.9C26.9601 22.03 26.9301 22.12 26.7801 22.26Z" fill="#FFFFFF"/>
<path d="M20.0005 10.52C19.6705 10.52 19.3805 10.27 19.3205 9.94L19.2605 9.55H17.7305L17.7805 10.07C17.8605 10.86 18.3905 11.57 19.1305 11.89L19.2205 11.93V13.04H20.7605V11.93L20.8505 11.89C21.6705 11.54 22.2205 10.72 22.2205 9.84C22.2205 8.61 21.2205 7.61 19.9905 7.61C19.6105 7.61 19.3105 7.3 19.3105 6.92C19.3105 6.54 19.6205 6.23 19.9905 6.23C20.3205 6.23 20.6105 6.48 20.6705 6.81L20.7305 7.2H22.2605L22.2105 6.68C22.1305 5.89 21.6005 5.18 20.8605 4.86L20.7705 4.82V3.72H19.2305V4.84L19.1405 4.88C18.3205 5.23 17.7705 6.05 17.7705 6.93C17.7705 8.16 18.7705 9.16 20.0005 9.16C20.3805 9.16 20.6905 9.47 20.6905 9.85C20.6905 10.21 20.3805 10.52 20.0005 10.52Z" fill="#FFFFFF"/>
</svg>
