<svg width="40" height="30" viewBox="0 0 40 30" fill="none" xmlns="http://www.w3.org/2000/svg">
<g clip-path="url(#clip0)">
<path d="M21.3402 0C20.9802 0 20.6602 0.32 20.6602 0.68V13.68C20.6602 14.04 20.9802 14.36 21.3402 14.36H34.3402C34.7002 14.36 35.0202 14.04 35.0202 13.68C35.0202 6.14 28.8802 0 21.3402 0ZM22.0202 1.41C28.2402 1.72 33.3002 6.78 33.6102 13H22.0202V1.41Z" fill="#FFFFFF"/>
<path d="M31.6305 15.64H19.3405V3.35999C19.3405 2.99999 19.0205 2.67999 18.6605 2.67999C11.1205 2.67999 4.98047 8.81999 4.98047 16.36C4.98047 19.96 6.38047 23.36 8.92047 25.96V26.07H9.03047C11.5905 28.61 14.9905 30.01 18.6305 30.01C22.2305 30.01 25.6405 28.61 28.2405 26.06C28.2805 26.04 28.3105 26.02 28.3305 25.97L28.3405 25.96C30.9005 23.4 32.3105 19.98 32.3105 16.33C32.3105 15.96 31.9905 15.64 31.6305 15.64ZM26.8805 25.53C24.7805 27.41 22.1105 28.51 19.3505 28.64V17.99L26.8805 25.53ZM30.9405 17.04C30.8105 19.81 29.7105 22.47 27.8305 24.57L20.3005 17.04H30.9405ZM9.49047 24.57C7.61047 22.47 6.52047 19.8 6.38047 17.04H17.0205L9.49047 24.57ZM17.9805 17.99V28.63C15.1805 28.46 12.5105 27.36 10.4505 25.52L17.9805 17.99ZM6.39047 15.68C6.70047 9.45999 11.7605 4.39999 17.9805 4.07999V15.67H6.39047V15.68Z" fill="#FFFFFF"/>
</g>
<defs>
<clipPath id="clip0">
<rect width="40" height="30" fill="white"/>
</clipPath>
</defs>
</svg>
