<svg width="40" height="30" viewBox="0 0 40 30" fill="none" xmlns="http://www.w3.org/2000/svg">
<path d="M0.84 1.68H39.16C39.62 1.68 40 1.3 40 0.84C40 0.38 39.62 0 39.16 0H0.84C0.38 0 0 0.38 0 0.84C0 1.3 0.38 1.68 0.84 1.68Z" fill="#FFFFFF"/>
<path d="M39.16 14.16H27.88L27.8 13.68C27.24 10.36 24.63 7.75001 21.31 7.19001C19.23 6.84001 17.13 7.32001 15.41 8.55001C13.69 9.78001 12.55 11.6 12.2 13.68L12.12 14.16H0.84C0.38 14.16 0 14.54 0 15C0 15.46 0.38 15.84 0.84 15.84H12.12L12.2 16.32C12.76 19.64 15.36 22.25 18.69 22.81C19.13 22.88 19.58 22.92 20.02 22.92C21.65 22.92 23.24 22.41 24.59 21.45C26.31 20.22 27.45 18.4 27.8 16.32L27.88 15.84H39.16C39.62 15.84 40 15.46 40 15C40 14.54 39.62 14.16 39.16 14.16ZM26.24 15C26.24 18.44 23.44 21.24 20 21.24C16.56 21.24 13.76 18.44 13.76 15C13.76 11.56 16.56 8.76001 20 8.76001C23.44 8.76001 26.24 11.56 26.24 15Z" fill="#FFFFFF"/>
<path d="M39.16 28.32H0.84C0.38 28.32 0 28.7 0 29.16C0 29.62 0.38 30 0.84 30H39.16C39.62 30 40 29.62 40 29.16C40 28.7 39.62 28.32 39.16 28.32Z" fill="#FFFFFF"/>
</svg>
