<svg width="40" height="30" viewBox="0 0 40 30" fill="none" xmlns="http://www.w3.org/2000/svg">
<path d="M14.37 8.33999L14.24 8.20999L13.21 9.23999L18.98 15L13.21 20.76L14.24 21.79L20 16.02L25.76 21.79L26.79 20.76L21.02 15L26.79 9.23999L25.76 8.20999L20 13.98L14.37 8.33999Z" fill="#FFFFFF"/>
<path d="M34.34 8.1L26.9 0.66C26.48 0.23 25.91 0 25.32 0H14.68C14.08 0 13.52 0.23 13.1 0.66L5.66 8.1C5.24 8.52 5 9.09 5 9.68V20.31C5 20.91 5.23 21.47 5.66 21.89L13.1 29.34C13.52 29.76 14.08 30 14.68 30H25.31C25.91 30 26.47 29.77 26.89 29.34L34.34 21.89C34.76 21.47 35 20.91 35 20.31V9.68C35 9.09 34.76 8.52 34.34 8.1ZM33.72 9.29V20.72L25.72 28.72H14.29L6.29 20.72V9.29L14.29 1.29H25.72L33.72 9.29Z" fill="#FFFFFF"/>
</svg>
