<svg width="40" height="30" viewBox="0 0 40 30" fill="none" xmlns="http://www.w3.org/2000/svg">
<path d="M10.3296 22.79H5.98961C5.63961 22.79 5.34961 23.08 5.34961 23.43V29.35C5.34961 29.7 5.63961 29.99 5.98961 29.99H10.3296C10.6796 29.99 10.9696 29.7 10.9696 29.35V23.43C10.9796 23.08 10.6896 22.79 10.3296 22.79ZM9.68961 24.08V28.71H6.62961V24.08H9.68961Z" fill="#FFFFFF"/>
<path d="M18.2195 14.92H13.8695C13.5195 14.92 13.2295 15.21 13.2295 15.56V29.35C13.2295 29.7 13.5195 29.99 13.8695 29.99H18.2195C18.5695 29.99 18.8595 29.7 18.8595 29.35V15.57C18.8595 15.21 18.5695 14.92 18.2195 14.92ZM14.5195 28.71V16.21H17.5795V28.72H14.5195V28.71Z" fill="#FFFFFF"/>
<path d="M26.1296 17.24H21.7796C21.4296 17.24 21.1396 17.53 21.1396 17.88V29.36C21.1396 29.71 21.4296 30 21.7796 30H26.1296C26.4796 30 26.7696 29.71 26.7696 29.36V17.88C26.7696 17.52 26.4796 17.24 26.1296 17.24ZM22.4196 28.71V18.52H25.4796V28.71H22.4196Z" fill="#FFFFFF"/>
<path d="M34.0098 8.03998H29.6898C29.3398 8.03998 29.0498 8.32998 29.0498 8.67998V29.36C29.0498 29.71 29.3398 30 29.6898 30H34.0098C34.3598 30 34.6498 29.71 34.6498 29.36V8.67998C34.6498 8.32998 34.3598 8.03998 34.0098 8.03998ZM33.3698 9.31998V28.71H30.3098L30.3298 9.31998H33.3698Z" fill="#FFFFFF"/>
<path d="M8.14 16.21C9.6 16.21 10.79 15.03 10.79 13.57C10.79 13.04 10.63 12.55 10.36 12.13L14.78 7.41C15.16 7.62 15.59 7.75 16.05 7.75C16.05 7.75 16.05 7.75 16.06 7.75C16.63 7.75 17.16 7.56 17.59 7.25L21.59 10.67C21.41 11.03 21.31 11.42 21.31 11.84C21.31 12.55 21.59 13.21 22.09 13.71C22.59 14.21 23.25 14.48 23.95 14.48C23.95 14.48 23.95 14.48 23.96 14.48C25.41 14.48 26.59 13.29 26.6 11.83C26.6 11.27 26.42 10.75 26.11 10.32L30.68 4.98C31.04 5.16 31.44 5.27 31.86 5.27H31.88C32.59 5.26 33.25 4.98 33.74 4.48C34.23 3.98 34.5 3.31 34.5 2.61C34.48 1.17 33.3 0 31.86 0C30.41 0 29.22 1.18 29.22 2.64C29.22 3.2 29.4 3.72 29.7 4.15L25.13 9.49C24.77 9.31 24.37 9.2 23.94 9.2C23.94 9.2 23.94 9.2 23.93 9.2C23.37 9.2 22.85 9.38 22.41 9.7L18.4 6.28C18.57 5.94 18.67 5.56 18.67 5.16V5.12C18.67 3.66 17.49 2.48 16.03 2.48C14.57 2.48 13.39 3.66 13.39 5.12C13.39 5.64 13.55 6.13 13.81 6.54L9.4 11.26C9.03 11.06 8.6 10.93 8.15 10.93C8.15 10.93 8.15 10.93 8.14 10.93C6.69 10.93 5.5 12.11 5.5 13.57C5.5 14.28 5.77 14.94 6.27 15.44C6.77 15.93 7.43 16.21 8.14 16.21ZM8.14 12.22C8.51 12.22 8.84 12.36 9.1 12.61C9.36 12.86 9.5 13.2 9.5 13.57C9.5 14.32 8.9 14.93 8.15 14.93C7.4 14.93 6.8 14.32 6.79 13.58C6.79 12.83 7.39 12.22 8.14 12.22ZM16.05 3.77V3.64L16.07 3.76C16.43 3.77 16.77 3.91 17.02 4.17C17.27 4.43 17.41 4.77 17.4 5.13C17.39 5.86 16.78 6.46 16.05 6.46C15.3 6.46 14.7 5.85 14.7 5.11C14.7 4.37 15.3 3.77 16.05 3.77ZM22.94 10.98C22.97 10.95 22.98 10.91 23 10.87C23.25 10.62 23.59 10.48 23.94 10.48C23.94 10.48 23.94 10.48 23.95 10.48L24.05 10.46C24.33 10.48 24.57 10.6 24.79 10.78C24.83 10.82 24.87 10.84 24.92 10.87C25.17 11.13 25.31 11.47 25.31 11.84C25.31 12.2 25.17 12.54 24.91 12.8C24.65 13.05 24.32 13.19 23.96 13.19C23.96 13.19 23.96 13.19 23.95 13.19C23.59 13.19 23.25 13.05 22.99 12.79C22.74 12.53 22.6 12.19 22.6 11.83C22.6 11.52 22.72 11.24 22.91 11C22.92 10.99 22.93 10.99 22.94 10.98ZM30.97 3.57C30.93 3.54 30.89 3.53 30.85 3.51C30.65 3.27 30.52 2.97 30.52 2.63C30.52 1.89 31.13 1.28 31.87 1.28L31.97 1.26C32.66 1.32 33.21 1.9 33.22 2.63C33.22 3.37 32.61 3.98 31.87 3.98C31.61 3.98 31.36 3.9 31.15 3.77C31.1 3.7 31.04 3.63 30.97 3.57Z" fill="#FFFFFF"/>
</svg>
