<svg width="40" height="30" viewBox="0 0 40 30" fill="none" xmlns="http://www.w3.org/2000/svg">
<g clip-path="url(#clip0)">
<path d="M15.3902 4.35998C16.7302 3.01998 18.0702 1.67998 19.4102 0.33998C19.8702 -0.12002 20.1302 -0.11002 20.5902 0.34998C24.9602 4.70998 29.3202 9.07998 33.6902 13.44C33.7602 13.51 33.8302 13.58 33.8902 13.65C34.1902 14.05 33.9802 14.56 33.4802 14.59C33.0502 14.62 32.6202 14.6 32.1902 14.61C32.0802 14.61 31.9802 14.61 31.8602 14.61C31.8602 19.35 31.8602 24.07 31.8602 28.83C31.9502 28.83 32.0402 28.83 32.1302 28.83C32.8102 28.83 33.5002 28.83 34.1802 28.83C34.7102 28.83 35.0002 29.03 35.0002 29.41C35.0102 29.79 34.7102 30 34.1902 30C29.5202 30 24.8502 30 20.1802 30C15.3902 30 10.6102 30 5.82024 30C5.29024 30 5.01024 29.8 5.00024 29.42C4.99024 29.04 5.29024 28.83 5.84024 28.83C6.60024 28.83 7.36024 28.83 8.14024 28.83C8.14024 24.09 8.14024 19.37 8.14024 14.61C7.78024 14.61 7.42024 14.61 7.06024 14.61C6.86024 14.61 6.65024 14.62 6.45024 14.59C6.05024 14.53 5.84024 14.09 6.05024 13.74C6.10024 13.65 6.18024 13.57 6.25024 13.49C8.02024 11.72 9.79024 9.94998 11.5602 8.18998L15.3902 4.35998ZM12.5702 8.80998C12.5002 8.89998 12.4202 8.98998 12.3402 9.06998C10.9902 10.42 9.63024 11.78 8.28024 13.13C8.20024 13.21 8.12024 13.29 7.99024 13.44C8.45024 13.44 8.83024 13.47 9.21024 13.45C9.99024 13.41 10.5202 13.25 11.0602 12.7C13.8102 9.88998 16.6002 7.12998 19.3802 4.35998C19.8802 3.85998 20.1202 3.85998 20.6202 4.35998C23.5702 7.30998 26.5202 10.26 29.4702 13.21C29.6302 13.37 29.8002 13.45 30.0302 13.45C30.6602 13.43 31.3002 13.44 31.8802 13.44C27.9202 9.46998 23.9402 5.49998 19.9402 1.48998C19.9302 1.49998 19.8502 1.56998 19.7802 1.63998C18.6002 2.81998 17.4202 3.99998 16.2402 5.17998L12.5702 8.80998ZM20.0002 5.32998C19.8802 5.47998 19.8202 5.56998 19.7402 5.64998C16.8702 8.51998 13.9902 11.39 11.1302 14.27C10.8902 14.51 10.6402 14.63 10.3002 14.62C9.98024 14.6 9.66024 14.62 9.35024 14.62C9.35024 17.35 9.35024 20.03 9.35024 22.77C9.93024 22.19 10.4802 21.64 11.0202 21.09C11.4502 20.66 11.7302 20.66 12.1602 21.09C12.7602 21.69 13.3602 22.29 14.0302 22.96C14.1002 22.85 14.1402 22.75 14.2202 22.68C15.5302 21.37 16.8402 20.05 18.1502 18.74C18.5502 18.34 18.8402 18.34 19.2502 18.75C20.3002 19.8 21.3502 20.85 22.4002 21.9C22.4702 21.97 22.5502 22.04 22.6002 22.09C24.2302 20.46 25.8402 18.85 27.4602 17.23C27.4502 17.22 27.4102 17.2 27.3802 17.19C27.0302 17.08 26.8802 16.89 26.9102 16.56C26.9402 16.26 27.1602 16.06 27.5202 16.05C28.0202 16.04 28.5202 16.04 29.0102 16.05C29.3602 16.06 29.5902 16.27 29.6002 16.61C29.6202 17.13 29.6102 17.65 29.6002 18.16C29.5902 18.49 29.3602 18.72 29.0502 18.75C28.7702 18.77 28.5202 18.57 28.4402 18.26C28.4202 18.19 28.4202 18.12 28.4002 18.01C28.3002 18.1 28.2302 18.16 28.1702 18.23C26.5102 19.89 24.8602 21.55 23.2002 23.2C22.7602 23.64 22.4902 23.64 22.0602 23.21C21.0102 22.16 19.9602 21.11 18.9102 20.06C18.8402 19.99 18.7602 19.92 18.6802 19.84C17.8702 20.65 17.0802 21.44 16.3002 22.23C15.7102 22.82 15.1102 23.42 14.5202 24.01C14.1202 24.41 13.8302 24.41 13.4202 24C13.0602 23.64 12.7002 23.29 12.3402 22.92C12.1002 22.67 11.8602 22.41 11.6102 22.14C10.8402 22.91 10.1102 23.63 9.39024 24.36C9.32024 24.43 9.31024 24.57 9.31024 24.68C9.30024 25.96 9.31024 27.24 9.31024 28.52C9.31024 28.61 9.32024 28.71 9.32024 28.79C16.4402 28.79 23.5402 28.79 30.6302 28.79C30.6302 28.24 30.6302 27.72 30.6302 27.17C30.4802 27.17 30.3502 27.17 30.2102 27.17C28.9902 27.17 27.7702 27.17 26.5502 27.17C26.2702 27.17 26.0602 27.06 25.9402 26.8C25.8502 26.58 25.8802 26.35 26.0502 26.21C26.2002 26.09 26.4202 26.01 26.6002 26.01C27.8402 25.99 29.0802 26 30.3202 26C30.4202 26 30.5202 26 30.6202 26C30.6202 22.18 30.6202 18.4 30.6202 14.6C30.3102 14.6 30.0202 14.58 29.7302 14.6C29.3502 14.62 29.0702 14.49 28.8002 14.22C25.9602 11.37 23.1102 8.52998 20.2702 5.67998C20.2102 5.60998 20.1402 5.49998 20.0002 5.32998Z" fill="#FFFFFF"/>
</g>
<defs>
<clipPath id="clip0">
<rect width="40" height="30" fill="white"/>
</clipPath>
</defs>
</svg>
