<svg width="40" height="30" viewBox="0 0 40 30" fill="none" xmlns="http://www.w3.org/2000/svg">
<path d="M3.70996 0V24.69H31.18V0H3.70996ZM4.70996 5.53H30.18V23.68H4.70996V5.53ZM30.18 4.53H4.70996V1H30.18V4.53Z" fill="#FFFFFF"/>
<path d="M11.5696 13.95L13.5996 11.7V10.8H8.56961V11.97H11.7996L9.77961 14.25L10.0396 15H10.6596C11.7796 15 12.4396 15.44 12.4396 16.17C12.4396 16.87 11.8896 17.35 11.0896 17.35C10.3196 17.35 9.70961 17.04 9.15961 16.37L9.00961 16.19L8.09961 17.01L8.22961 17.17C8.70961 17.79 9.58961 18.54 11.0796 18.54C12.5696 18.54 13.6996 17.51 13.6996 16.15C13.7096 14.99 12.9196 14.19 11.5696 13.95Z" fill="#FFFFFF"/>
<path d="M17.6798 13.48C16.9698 13.48 16.3798 13.7 15.8998 14.15C15.9898 13.36 16.2498 12.71 16.6498 12.31C16.9498 12.01 17.3198 11.85 17.7398 11.85C18.2898 11.85 18.7398 12.04 19.2898 12.5L19.4698 12.65L20.2098 11.67L20.0498 11.53C19.3198 10.93 18.6198 10.66 17.7898 10.66C15.8698 10.66 14.5898 12.32 14.5898 14.79C14.5898 16.19 14.8698 17.05 15.5598 17.73C16.0798 18.25 16.7798 18.52 17.5998 18.52C19.1898 18.52 20.3898 17.39 20.3898 15.9C20.3898 14.51 19.2498 13.48 17.6798 13.48ZM19.1098 15.95C19.1098 16.79 18.4898 17.38 17.5998 17.38C16.6798 17.38 16.0098 16.79 16.0098 15.98C16.0098 15.31 16.5998 14.63 17.5798 14.63C18.4798 14.63 19.1098 15.17 19.1098 15.95Z" fill="#FFFFFF"/>
<path d="M23.9896 13.53C23.5296 13.53 23.1696 13.61 22.8196 13.73L22.9396 12H26.3796V10.8H21.8196L21.5996 14.63L22.3596 15.13L22.4796 15.07C22.8096 14.89 23.2696 14.69 23.8796 14.69C24.8096 14.69 25.4396 15.21 25.4396 15.98C25.4396 16.79 24.8196 17.36 23.9296 17.36C23.3096 17.36 22.6796 17.05 22.0496 16.44L21.8896 16.28L21.0596 17.19L21.2096 17.34C21.9796 18.12 22.9496 18.54 23.9296 18.54C25.5696 18.54 26.7096 17.48 26.7096 15.95C26.6896 14.52 25.5796 13.53 23.9896 13.53Z" fill="#FFFFFF"/>
<path d="M33.8696 27.44H5.09961V24.2H6.27961V26.27H32.6896V2.56H30.6596V1.38H33.8696V27.44Z" fill="#FFFFFF"/>
<path d="M36.2903 30H7.53027V26.76H8.70027V28.82H35.1203V5.12H33.0903V3.94H36.2903V30Z" fill="#FFFFFF"/>
</svg>
