<svg width="40" height="30" viewBox="0 0 40 30" fill="none" xmlns="http://www.w3.org/2000/svg">
<g clip-path="url(#clip0)">
<path d="M10.4192 22.8H2.41918C1.99918 22.8 1.65918 23.14 1.65918 23.56C1.65918 23.98 1.99918 24.32 2.41918 24.32H10.4192C10.8392 24.32 11.1792 23.98 11.1792 23.56C11.1792 23.14 10.8392 22.8 10.4192 22.8Z" fill="#FFFFFF"/>
<path d="M9.53953 16.36C9.53953 15.94 9.19953 15.6 8.77953 15.6H0.779531C0.359531 15.6 0.0195312 15.94 0.0195312 16.36C0.0195312 16.78 0.359531 17.12 0.779531 17.12H8.77953C9.19953 17.12 9.53953 16.78 9.53953 16.36Z" fill="#FFFFFF"/>
<path d="M10.4192 8.40002H2.41918C1.99918 8.40002 1.65918 8.74002 1.65918 9.16002C1.65918 9.58002 1.99918 9.92002 2.41918 9.92002H10.4192C10.8392 9.92002 11.1792 9.58002 11.1792 9.16002C11.2192 8.74002 10.8392 8.40002 10.4192 8.40002Z" fill="#FFFFFF"/>
<path d="M16.6693 25.87C11.3693 20.57 11.3693 11.98 16.6693 6.68C21.6393 1.71 29.5793 1.36 34.9693 5.87L36.5993 4.24L35.5993 3.23C35.3193 2.95 35.3293 2.5 35.5993 2.22C35.8793 1.95 36.3193 1.95 36.5993 2.22L39.6193 5.24C39.8993 5.52 39.8893 5.97 39.6193 6.25C39.3393 6.52 38.8993 6.52 38.6193 6.25L37.6093 5.24L36.0093 6.84C41.2993 12.14 41.2993 20.73 35.9993 26.03C30.6993 31.33 22.1093 31.32 16.8093 26.02C16.7593 25.97 16.7193 25.92 16.6693 25.87ZM14.0493 16.28C14.0493 23.02 19.5193 28.49 26.2593 28.49C32.9993 28.49 38.4693 23.02 38.4693 16.28C38.4693 9.54 33.0093 4.07 26.2593 4.07C19.5093 4.07 14.0493 9.54 14.0493 16.28ZM23.5493 16.28C23.5493 15.04 24.3893 13.96 25.5793 13.65V7.46C25.5793 7.09 25.8793 6.78 26.2593 6.78C26.6293 6.78 26.9393 7.08 26.9393 7.46V13.65C28.3893 14.02 29.2593 15.5 28.8893 16.96C28.5193 18.42 27.0393 19.28 25.5793 18.91C24.3893 18.6 23.5493 17.52 23.5493 16.28ZM24.9093 16.28C24.9093 17.03 25.5193 17.64 26.2693 17.64C27.0193 17.64 27.6293 17.03 27.6293 16.28C27.6293 15.53 27.0193 14.92 26.2693 14.92C25.5093 14.92 24.9093 15.53 24.9093 16.28ZM22.8693 1.36C22.4993 1.36 22.1893 1.06 22.1893 0.68C22.1893 0.3 22.4993 0 22.8693 0H29.6493C30.0193 0 30.3293 0.3 30.3293 0.68C30.3293 1.06 30.0293 1.36 29.6493 1.36H22.8693Z" fill="#FFFFFF"/>
</g>
<defs>
<clipPath id="clip0">
<rect width="40" height="30" fill="white"/>
</clipPath>
</defs>
</svg>
