<svg width="40" height="30" viewBox="0 0 40 30" fill="none" xmlns="http://www.w3.org/2000/svg">
<path d="M20 0C28.27 0 35 6.73 35 15C35 23.27 28.27 30 20 30C11.73 30 5 23.27 5 15C5 6.73 11.73 0 20 0ZM20 28.85C27.64 28.85 33.85 22.64 33.85 15C33.85 7.36 27.64 1.15 20 1.15C12.36 1.15 6.15 7.36 6.15 15C6.15 22.64 12.36 28.85 20 28.85Z" fill="#FFFFFF"/>
<path d="M20.0003 7.07001C24.3703 7.07001 27.9303 10.63 27.9303 15C27.9303 19.37 24.3703 22.93 20.0003 22.93C15.6303 22.93 12.0703 19.37 12.0703 15C12.0703 10.63 15.6303 7.07001 20.0003 7.07001ZM20.0003 21.77C23.7303 21.77 26.7703 18.73 26.7703 15C26.7703 11.27 23.7303 8.23001 20.0003 8.23001C16.2703 8.23001 13.2303 11.27 13.2303 15C13.2303 18.73 16.2703 21.77 20.0003 21.77Z" fill="#FFFFFF"/>
<path d="M24.7204 20.24C24.7504 20.24 24.7804 20.24 24.8004 20.25C27.1804 20.6 29.4304 21.4 31.4904 22.64C31.7604 22.8 31.8504 23.16 31.6904 23.43C31.5304 23.7 31.1704 23.79 30.9004 23.63C28.9704 22.47 26.8604 21.72 24.6404 21.39C24.3204 21.34 24.1104 21.05 24.1504 20.74C24.2004 20.45 24.4404 20.24 24.7204 20.24Z" fill="#FFFFFF"/>
<path d="M15.2703 20.24C15.5503 20.24 15.8003 20.45 15.8403 20.73C15.8903 21.05 15.6703 21.34 15.3503 21.38C13.1203 21.71 11.0203 22.46 9.0903 23.62C8.8203 23.78 8.4603 23.7 8.3003 23.42C8.1403 23.15 8.2203 22.79 8.5003 22.63C10.5603 21.39 12.8103 20.59 15.1903 20.24C15.2203 20.25 15.2503 20.24 15.2703 20.24Z" fill="#FFFFFF"/>
<path d="M31.2004 6.28C31.4004 6.28 31.5904 6.38 31.7004 6.56C31.8604 6.83 31.7804 7.19 31.5004 7.35C29.4404 8.59 27.1904 9.39 24.8104 9.74C24.4904 9.79 24.2004 9.57 24.1604 9.25C24.1104 8.93 24.3304 8.64 24.6504 8.6C26.8804 8.27 28.9804 7.52 30.9104 6.36C31.0004 6.31 31.1004 6.28 31.2004 6.28Z" fill="#FFFFFF"/>
<path d="M8.79997 6.28C8.89997 6.28 8.99997 6.31 9.09997 6.36C11.03 7.52 13.14 8.27 15.36 8.6C15.68 8.65 15.89 8.94 15.85 9.25C15.8 9.57 15.52 9.78 15.2 9.74C12.81 9.4 10.56 8.59 8.49997 7.36C8.22997 7.19 8.13997 6.84 8.29997 6.56C8.40997 6.38 8.59997 6.28 8.79997 6.28Z" fill="#FFFFFF"/>
<path d="M19.9999 21.92C20.3199 21.92 20.5799 22.18 20.5799 22.5V28.85C20.5799 29.17 20.3199 29.43 19.9999 29.43C19.6799 29.43 19.4199 29.17 19.4199 28.85V22.5C19.4199 22.18 19.6799 21.92 19.9999 21.92Z" fill="#FFFFFF"/>
<path d="M27.4999 14.42H33.8499C34.1699 14.42 34.4299 14.68 34.4299 15C34.4299 15.32 34.1699 15.58 33.8499 15.58H27.4999C27.1799 15.58 26.9199 15.32 26.9199 15C26.9199 14.68 27.1799 14.42 27.4999 14.42Z" fill="#FFFFFF"/>
<path d="M19.9999 0.579987C20.3199 0.579987 20.5799 0.839987 20.5799 1.15999V7.50999C20.5799 7.82999 20.3199 8.08999 19.9999 8.08999C19.6799 8.08999 19.4199 7.82999 19.4199 7.50999V1.15999C19.4199 0.839987 19.6799 0.579987 19.9999 0.579987Z" fill="#FFFFFF"/>
<path d="M6.15031 14.42H12.5003C12.8203 14.42 13.0803 14.68 13.0803 15C13.0803 15.32 12.8203 15.58 12.5003 15.58H6.15031C5.83031 15.58 5.57031 15.32 5.57031 15C5.58031 14.68 5.83031 14.42 6.15031 14.42Z" fill="#FFFFFF"/>
<path d="M19.9998 17.07C19.6798 17.07 19.3998 16.83 19.3398 16.51L19.2798 16.13H17.7998L17.8498 16.63C17.9298 17.39 18.4398 18.08 19.1598 18.39L19.2498 18.43V19.51H20.7398V18.43L20.8298 18.39C21.6198 18.06 22.1498 17.26 22.1498 16.41C22.1498 15.22 21.1798 14.25 19.9898 14.25C19.6298 14.25 19.3298 13.95 19.3298 13.59C19.3298 13.22 19.6298 12.93 19.9898 12.93C20.3098 12.93 20.5898 13.17 20.6398 13.49L20.6998 13.87H22.1798L22.1298 13.37C22.0498 12.61 21.5398 11.92 20.8198 11.61L20.7298 11.57V10.49H19.2398V11.57L19.1498 11.61C18.3598 11.94 17.8298 12.74 17.8298 13.59C17.8298 14.78 18.7998 15.75 19.9898 15.75C20.3598 15.75 20.6498 16.05 20.6498 16.41C20.6598 16.78 20.3698 17.07 19.9998 17.07Z" fill="#FFFFFF"/>
<path d="M25.6198 19.66C25.6498 19.66 25.6698 19.66 25.6998 19.67C25.9798 19.71 26.1698 19.98 26.1298 20.26C25.7198 22.89 25.0598 24.88 24.0698 26.53C23.3098 27.79 22.0198 29.32 20.1798 29.42C18.3098 29.52 16.9598 28.05 16.3298 27.16C15.2198 25.6 14.4398 23.57 13.9998 21.1C13.9498 20.82 13.8998 20.54 13.8598 20.26C13.8198 19.98 14.0098 19.71 14.2898 19.67C14.5798 19.62 14.8398 19.82 14.8798 20.1C14.9198 20.37 14.9698 20.64 15.0198 20.92C15.4298 23.24 16.1598 25.13 17.1698 26.56C17.6798 27.28 18.7498 28.47 20.1198 28.39C21.5898 28.31 22.6698 26.86 23.1898 26C24.1098 24.47 24.7198 22.6 25.1098 20.1C25.1498 19.84 25.3698 19.66 25.6198 19.66Z" fill="#FFFFFF"/>
<path d="M14.3796 10.34C14.3496 10.34 14.3296 10.34 14.2996 10.33C14.0196 10.29 13.8296 10.02 13.8696 9.74001C14.2796 7.11001 14.9396 5.12001 15.9296 3.47001C16.6896 2.21001 17.9796 0.680014 19.8196 0.580014C21.6896 0.480014 23.0396 1.95001 23.6696 2.84001C24.7796 4.40001 25.5596 6.43001 25.9996 8.90001C26.0496 9.18001 26.0996 9.46001 26.1396 9.74001C26.1796 10.02 25.9896 10.29 25.7096 10.33C25.4196 10.38 25.1596 10.18 25.1196 9.90001C25.0796 9.63001 25.0296 9.36001 24.9796 9.08001C24.5696 6.76001 23.8396 4.87001 22.8296 3.44001C22.3196 2.72001 21.2496 1.53001 19.8796 1.61001C18.4096 1.69001 17.3296 3.14001 16.8096 4.00001C15.8896 5.53001 15.2796 7.40001 14.8896 9.90001C14.8396 10.16 14.6296 10.34 14.3796 10.34Z" fill="#FFFFFF"/>
</svg>
