<svg width="40" height="30" viewBox="0 0 40 30" fill="none" xmlns="http://www.w3.org/2000/svg">
<path d="M31.72 15.62H19.38V3.27998C19.38 2.90998 19.08 2.59998 18.7 2.59998C18.7 2.59998 18.7 2.59998 18.69 2.59998C11.15 2.60998 5 8.74997 5 16.3C5 23.85 11.14 30 18.69 30C18.69 30 18.69 30 18.7 30C22.36 30 25.79 28.58 28.38 25.99C30.97 23.4 32.39 19.97 32.4 16.3C32.39 15.93 32.09 15.62 31.72 15.62ZM18.7 28.65C15.4 28.63 12.31 27.32 9.99 24.97C7.67 22.62 6.41 19.51 6.43 16.21C6.48 9.71997 11.56 4.36998 18.03 3.96998V16.3C18.03 16.67 18.33 16.98 18.7 16.98H31.03C30.67 23.52 25.28 28.64 18.7 28.65Z" fill="#FFFFFF"/>
<path d="M21.3001 0C20.9301 0 20.6201 0.3 20.6201 0.68V13.7C20.6201 14.07 20.9201 14.38 21.3001 14.38H34.3201C34.6901 14.38 35.0001 14.08 35.0001 13.7C34.9901 6.15 28.8501 0.01 21.3001 0ZM33.6401 13.02H21.9801V1.36C28.3201 1.7 33.3001 6.69 33.6401 13.02Z" fill="#FFFFFF"/>
</svg>
