<svg width="40" height="30" viewBox="0 0 40 30" fill="none" xmlns="http://www.w3.org/2000/svg">
<path d="M3.30957 0V30H36.6996V0H3.30957ZM4.51957 6.72H35.4696V28.78H4.51957V6.72ZM35.4796 5.5H4.51957V1.22H35.4696V5.5H35.4796Z" fill="#FFFFFF"/>
<path d="M12.8592 16.95L15.3192 14.22V13.12H9.21918V14.55H13.1492L10.6892 17.32L10.9992 18.23H11.7492C13.1092 18.23 13.9192 18.76 13.9192 19.65C13.9192 20.49 13.2492 21.08 12.2892 21.08C11.3592 21.08 10.6092 20.7 9.94918 19.89L9.76918 19.67L8.65918 20.66L8.80918 20.86C9.38918 21.62 10.4692 22.52 12.2692 22.52C14.0792 22.52 15.4492 21.27 15.4492 19.61C15.4592 18.21 14.4992 17.24 12.8592 16.95Z" fill="#FFFFFF"/>
<path d="M20.2895 16.39C19.4195 16.39 18.7095 16.66 18.1195 17.21C18.2295 16.26 18.5495 15.47 19.0295 14.98C19.3995 14.61 19.8495 14.42 20.3595 14.42C21.0295 14.42 21.5695 14.65 22.2395 15.21L22.4595 15.39L23.3595 14.2L23.1595 14.04C22.2695 13.31 21.4195 12.98 20.4095 12.98C18.0795 12.98 16.5195 14.99 16.5195 17.99C16.5195 19.7 16.8595 20.73 17.6895 21.57C18.3195 22.2 19.1795 22.53 20.1695 22.53C22.1095 22.53 23.5595 21.16 23.5595 19.35C23.5695 17.63 22.1895 16.39 20.2895 16.39ZM22.0295 19.38C22.0295 20.4 21.2795 21.11 20.1995 21.11C19.0795 21.11 18.2695 20.4 18.2695 19.41C18.2695 18.6 18.9795 17.76 20.1795 17.76C21.2595 17.77 22.0295 18.43 22.0295 19.38Z" fill="#FFFFFF"/>
<path d="M27.9591 16.44C27.3991 16.44 26.9591 16.53 26.5391 16.68L26.6791 14.57H30.8491V13.12H25.3091L25.0391 17.77L25.9591 18.38L26.0991 18.3C26.4991 18.08 27.0591 17.83 27.7991 17.83C28.9291 17.83 29.6991 18.46 29.6991 19.4C29.6991 20.38 28.9491 21.07 27.8691 21.07C27.1191 21.07 26.3491 20.69 25.5791 19.95L25.3791 19.76L24.3691 20.87L24.5491 21.05C25.4891 21.99 26.6591 22.51 27.8491 22.51C29.8391 22.51 31.2291 21.22 31.2291 19.36C31.2391 17.65 29.8891 16.44 27.9591 16.44Z" fill="#FFFFFF"/>
</svg>
