<svg width="40" height="30" viewBox="0 0 40 30" fill="none" xmlns="http://www.w3.org/2000/svg">
<path d="M20 0C11.73 0 5 6.73 5 15C5 23.27 11.73 30 20 30C28.27 30 35 23.27 35 15C35 6.73 28.27 0 20 0ZM33.57 15C33.57 22.48 27.48 28.57 20 28.57C12.52 28.57 6.43 22.48 6.43 15C6.43 7.52 12.52 1.43 20 1.43C27.48 1.43 33.57 7.52 33.57 15Z" fill="#FFFFFF"/>
<path d="M19.9997 9.56997C21.1097 9.56997 22.0697 10.39 22.2497 11.51L22.3097 11.68H23.8497L24.0697 11.64L24.0497 11.42C23.8997 9.95997 22.9097 8.65997 21.5297 8.08997L20.8997 7.82997V5.65997H19.0997V7.82997L18.4697 8.08997C16.9497 8.69997 15.9297 10.21 15.9297 11.84C15.9297 14.08 17.7497 15.9 19.9897 15.9C21.2397 15.9 22.2597 16.92 22.2597 18.17C22.2597 19.42 21.2397 20.44 19.9897 20.44C18.8797 20.44 17.9197 19.61 17.7497 18.51L17.7197 18.33H16.1497L15.9297 18.37L15.9497 18.59C16.0997 20.05 17.0897 21.35 18.4697 21.92L19.0897 22.18V24.35H20.8897V22.18L21.5197 21.92C23.0397 21.3 24.0597 19.8 24.0597 18.17C24.0597 15.93 22.2397 14.11 19.9997 14.11C18.7497 14.11 17.7297 13.09 17.7297 11.84C17.7297 10.59 18.7497 9.56997 19.9997 9.56997Z" fill="#FFFFFF"/>
</svg>
