<svg width="40" height="30" viewBox="0 0 40 30" fill="none" xmlns="http://www.w3.org/2000/svg">
<path d="M27.3696 14.52C26.7296 14.52 26.1096 14.61 25.5096 14.75V0L13.6096 3.78V7.31H4.88965V30H27.3596C31.6296 30 35.0996 26.53 35.0996 22.26C35.0996 17.99 31.6297 14.52 27.3696 14.52ZM6.14965 8.57H13.6096V28.75H6.14965V8.57ZM14.8696 28.74V4.7L24.2596 1.72V15.18C21.5396 16.38 19.6296 19.1 19.6296 22.26C19.6296 24.97 21.0396 27.36 23.1596 28.74H14.8696V28.74ZM27.3696 28.74C23.7896 28.74 20.8896 25.83 20.8896 22.26C20.8896 18.69 23.7996 15.78 27.3696 15.78C30.9396 15.78 33.8496 18.69 33.8496 22.26C33.8496 25.83 30.9396 28.74 27.3696 28.74Z" fill="#FFFFFF"/>
<path d="M27.3692 20.32C27.6592 20.32 27.9092 20.53 27.9492 20.82L28.0192 21.23H29.5292L29.4692 20.7C29.3892 19.91 28.8592 19.24 28.1292 18.95V17.9H26.5992V18.95C25.7892 19.26 25.2492 20.04 25.2492 20.92C25.2492 22.09 26.1992 23.04 27.3692 23.04C27.6992 23.04 27.9592 23.3 27.9592 23.63C27.9592 23.96 27.6992 24.22 27.3692 24.22C27.0792 24.22 26.8292 24.01 26.7892 23.72L26.7192 23.31H25.1992L25.2592 23.84C25.3392 24.63 25.8692 25.3 26.5992 25.59V26.64H28.1292V25.59C28.9392 25.28 29.4792 24.5 29.4792 23.62C29.4792 22.45 28.5292 21.5 27.3592 21.5C27.0292 21.5 26.7692 21.24 26.7692 20.91C26.7692 20.58 27.0392 20.32 27.3692 20.32Z" fill="#FFFFFF"/>
</svg>
