<svg width="40" height="30" viewBox="0 0 40 30" fill="none" xmlns="http://www.w3.org/2000/svg">
<g clip-path="url(#clip0)">
<path d="M20.5201 14.5C20.6601 14.5 20.7801 14.5 20.9101 14.5C25.3701 14.5 29.8201 14.5 34.2801 14.5C34.8501 14.5 35.0101 14.65 34.9901 15.22C34.7801 20.71 32.3501 24.95 27.6901 27.86C25.1401 29.45 22.3201 30.13 19.3201 29.98C15.1601 29.77 11.6501 28.11 8.84008 25.02C6.88007 22.86 5.65007 20.33 5.20007 17.46C4.50007 13.03 5.55007 9.03 8.37007 5.54C10.8301 2.5 14.0501 0.74 17.9101 0.15C18.5401 0.06 19.1701 0.04 19.8101 0.01C20.3201 -0.01 20.4901 0.17 20.4901 0.67C20.4901 2.33 20.4901 3.98 20.4901 5.64C20.4901 5.75 20.4901 5.86 20.4901 6.01C21.2401 6.01 21.9701 6.02 22.6901 6C22.7901 6 22.9001 5.88 22.9801 5.8C24.8101 3.98 26.6401 2.15 28.4601 0.32C28.6901 0.1 28.9101 0 29.2201 0C30.3701 0.01 31.5101 0.01 32.6601 0.01C32.7601 0.01 34.8601 0.01 34.9801 0.01C34.9801 0.34 34.9801 0.65 34.9801 1.01C34.8801 1.01 32.7801 1.01 32.6701 1.01C31.6001 1 30.5401 1 29.4801 1.01C29.3301 1.01 29.1401 1.09 29.0301 1.2C27.1901 3.03 25.3501 4.86 23.5301 6.7C23.3201 6.92 23.0901 7.01 22.7901 7.01C22.0301 6.99 21.2801 7 20.5201 7C20.5201 8.67 20.5201 10.31 20.5201 11.98C21.1601 11.98 21.8101 11.98 22.5001 11.98C22.5001 11.88 22.5001 11.77 22.5001 11.66C22.5001 10.65 22.5001 9.64 22.5001 8.63C22.5001 8.18 22.6801 8 23.1301 8C24.0801 8 25.0201 8 26.0101 8C26.0101 7.55 26.0101 7.13 26.0101 6.71C26.0101 6.38 26.0101 6.04 26.0101 5.71C26.0001 5.16 26.1501 5 26.6901 5C27.5101 5 28.3401 5 29.1601 5C29.2601 5 29.3601 5 29.5001 5C29.5001 4.37 29.5001 3.77 29.5001 3.17C29.5001 2.66 29.6601 2.5 30.1701 2.5C31.2301 2.5 32.2901 2.5 33.3601 2.5C33.8301 2.5 34.0001 2.67 34.0001 3.14C34.0001 5.96 34.0001 8.78 34.0001 11.61C34.0001 11.73 34.0001 11.85 34.0001 12C34.3401 12 34.6501 12 34.9801 12C34.9801 12.34 34.9801 12.65 34.9801 12.99C30.1701 12.99 25.3601 12.99 20.5301 12.99C20.5201 13.49 20.5201 13.98 20.5201 14.5ZM6.74007 10.5C7.18007 10.5 7.58007 10.5 7.97007 10.5C8.84007 10.51 9.49007 11.15 9.49007 12.02C9.49007 12.49 9.51007 12.96 9.49007 13.43C9.48007 13.73 9.57007 13.97 9.73007 14.21C10.2001 14.89 10.6401 15.58 11.1001 16.26C11.4001 16.7 11.4901 17.17 11.3401 17.68C11.2501 17.98 11.1601 18.28 11.1201 18.59C11.1001 18.79 11.1201 19.03 11.2201 19.2C11.6401 19.92 12.0701 20.21 12.5101 20.91C13.0201 21.71 13.5601 21.9 14.0701 22.7C14.2601 22.99 14.6901 23.11 15.1101 22.98C15.4401 22.88 15.5201 22.62 15.4901 22.31C15.3501 20.99 15.6101 20.77 16.3501 19.66C16.3701 19.63 16.4001 19.59 16.4101 19.55C16.4401 19.42 16.4901 19.29 16.4901 19.16C16.5001 18.64 16.5001 18.12 16.4901 17.6C16.4901 17.18 16.3001 17 15.8801 17C15.3001 17 14.7101 17 14.1301 17C13.5401 16.99 13.0901 16.73 12.8001 16.22C12.6501 15.96 12.5301 15.68 12.3901 15.42C12.0401 14.78 12.0701 14.16 12.5201 13.58C12.8801 13.12 13.0401 12.63 13.0101 12.03C12.9701 11.17 13.6601 10.54 14.5201 10.5C15.0901 10.48 15.6001 10.68 16.1201 10.86C16.3601 10.94 16.5701 10.94 16.8101 10.83C17.5501 10.5 18.3001 10.19 19.0401 9.87C19.2701 9.77 19.4701 9.65 19.4901 9.37C19.5101 9.05 19.5101 8.75 19.1701 8.56C18.9401 8.43 18.7401 8.27 18.5201 8.14C18.4101 8.08 18.2701 8.02 18.1501 8.02C16.0001 8 16.7301 8.15 14.8501 7.25C14.6901 7.17 14.4101 7.19 14.2401 7.29C13.2701 7.84 12.5901 7.7 11.9201 6.81C11.8101 6.66 11.5701 6.52 11.3901 6.52C10.6201 6.48 9.85007 6.5 9.08007 6.51C8.98007 6.51 8.85007 6.56 8.79007 6.63C7.90007 7.79 7.23007 9.07 6.74007 10.5ZM15.5201 28.29C20.3901 29.73 24.7601 28.94 28.7401 25.91C28.0301 25.78 27.3201 25.67 26.6201 25.63C25.7601 25.59 25.0201 25.37 24.4501 24.66C24.1701 24.3 23.8101 24 23.4801 23.68C22.6101 22.84 23.0001 23.02 21.8001 23C21.7801 23 21.7601 23 21.7401 23C21.4701 22.99 21.2901 23.12 21.1901 23.37C21.0401 23.75 20.8801 24.12 20.7401 24.5C20.5201 25.13 20.1001 25.55 19.4301 25.65C18.5801 25.78 17.8801 26.16 17.2601 26.77C16.7401 27.29 16.1501 27.75 15.5201 28.29ZM23.0901 15.51C22.1401 15.5 21.2001 15.5 20.2501 15.5C19.6401 15.5 19.5101 15.37 19.5101 14.75C19.5101 13.44 19.5101 12.13 19.5101 10.8C19.4401 10.81 19.4201 10.8 19.4001 10.81C18.6501 11.13 17.8901 11.45 17.1401 11.77C16.7301 11.95 16.3201 11.98 15.9001 11.82C15.6401 11.72 15.3701 11.63 15.1001 11.56C14.8901 11.51 14.6701 11.49 14.4501 11.5C14.1601 11.52 13.9801 11.74 14.0101 12.08C14.0901 12.85 13.8501 13.51 13.3701 14.1C13.3301 14.15 13.2801 14.2 13.2701 14.26C13.2501 14.45 13.2101 14.64 13.2401 14.82C13.2601 14.96 13.3801 15.08 13.4201 15.21C13.6201 15.84 14.0201 16.09 14.6901 16.01C15.1301 15.95 15.5801 15.99 16.0301 16C16.8401 16.01 17.4501 16.67 17.5101 17.48C17.6101 18.86 17.4401 20.17 16.6501 21.35C16.5401 21.51 16.5201 21.74 16.5101 21.94C16.4901 22.53 16.5401 22.13 16.4801 22.72C16.4201 23.35 15.9301 23.87 15.2901 23.96C14.4101 24.09 13.7601 24.03 13.2701 23.28C12.2801 21.74 11.3001 21.2 10.3201 19.65C10.1001 19.3 10.0101 18.91 10.1201 18.49C10.2101 18.16 10.2701 17.82 10.3701 17.49C10.4501 17.22 10.4001 16.99 10.2401 16.76C9.76007 16.07 9.30007 15.36 8.83007 14.66C8.60007 14.32 8.48007 13.96 8.49007 13.55C8.50007 13.05 8.50007 12.55 8.49007 12.05C8.49007 11.73 8.31008 11.52 8.01008 11.51C7.49008 11.5 6.97007 11.51 6.44007 11.51C6.41007 11.62 6.38007 11.71 6.36007 11.8C5.88008 13.84 5.83008 15.88 6.30008 17.92C7.35008 22.48 10.0001 25.76 14.2301 27.78C14.3901 27.86 14.5001 27.85 14.6401 27.73C15.3001 27.15 16.0001 26.62 16.6201 26.01C17.3401 25.31 18.1501 24.84 19.1401 24.7C19.1801 24.69 19.2201 24.69 19.2601 24.68C19.5001 24.62 19.6601 24.49 19.7501 24.25C19.9201 23.79 20.1001 23.34 20.3001 22.9C20.5601 22.33 21.0301 22.04 21.6601 22.02C21.9201 22.01 22.1801 22.03 22.4401 22.02C22.9501 22 23.3701 22.19 23.7201 22.55C24.3001 23.14 24.8901 23.73 25.4901 24.31C25.6101 24.43 25.7801 24.54 25.9401 24.56C27.1301 24.71 28.3201 24.82 29.5001 24.96C29.7201 24.99 29.8601 24.93 30.0201 24.77C31.4601 23.29 32.5301 21.57 33.2001 19.61C33.4301 18.94 33.5901 18.24 33.8001 17.51L33.9001 16.51C33.9301 16.16 33.9501 15.85 33.9701 15.52C30.9601 15.52 27.9801 15.52 24.9201 15.52L23.0901 15.51ZM30.5201 3.52C30.5201 6.37 30.5201 9.18 30.5201 11.99C31.3501 11.99 32.1601 11.99 32.9801 11.99C32.9801 9.16 32.9801 6.34 32.9801 3.52C32.1501 3.52 31.3401 3.52 30.5201 3.52ZM29.4801 11.99C29.4801 9.98 29.4801 8 29.4801 6.03C28.6401 6.03 27.8301 6.03 27.0201 6.03C27.0201 8.03 27.0201 10 27.0201 11.99C27.8401 11.99 28.6501 11.99 29.4801 11.99ZM13.3401 2.7C12.0601 3.38 10.9301 4.25 9.93008 5.29C9.88008 5.35 9.83007 5.41 9.75007 5.5C10.2801 5.5 10.7601 5.52 11.2301 5.5C11.9201 5.47 12.4401 5.72 12.8101 6.31C13.0401 6.68 13.2701 6.72 13.6501 6.47C14.2101 6.1 14.7701 6.07 15.3601 6.38C15.5201 6.46 15.6801 6.53 15.8301 6.62C16.3401 6.94 16.8901 7.07 17.4901 7.01C18.1901 6.94 18.8601 7.04 19.4301 7.51C19.4401 7.52 19.4701 7.5 19.5001 7.5C19.5001 6.73 19.5001 5.96 19.5001 5.19C19.5001 5.14 19.4901 5.09 19.4901 5V3.99C19.4901 2.98 19.4901 2.01 19.4901 1.01C17.9401 1.08 16.4601 1.36 14.9501 1.95L13.3401 2.7ZM25.9901 9.02C25.1501 9.02 24.3301 9.02 23.5301 9.02C23.5301 10.02 23.5301 11.01 23.5301 11.98C24.3601 11.98 25.1701 11.98 25.9901 11.98C25.9901 10.99 25.9901 10.02 25.9901 9.02Z" fill="#FFFFFF"/>
</g>
<defs>
<clipPath id="clip0">
<rect width="40" height="30" fill="white"/>
</clipPath>
</defs>
</svg>
