<svg width="40" height="30" viewBox="0 0 40 30" fill="none" xmlns="http://www.w3.org/2000/svg">
<g clip-path="url(#clip0)">
<path d="M10.3305 25.87C5.03047 20.57 5.03047 11.98 10.3305 6.68C15.3005 1.71 23.2405 1.36 28.6305 5.87L30.2605 4.24L29.2505 3.23C28.9705 2.95 28.9805 2.5 29.2505 2.22C29.5305 1.95 29.9705 1.95 30.2505 2.22L33.2705 5.24C33.5505 5.52 33.5405 5.97 33.2705 6.25C32.9905 6.52 32.5505 6.52 32.2705 6.25L31.2605 5.24L29.6605 6.84C34.9505 12.14 34.9505 20.73 29.6505 26.03C24.3505 31.33 15.7605 31.32 10.4605 26.02C10.4305 25.97 10.3805 25.92 10.3305 25.87ZM7.72047 16.28C7.72047 23.02 13.1905 28.49 19.9305 28.49C26.6705 28.49 32.1405 23.02 32.1405 16.28C32.1405 9.54 26.6705 4.07 19.9305 4.07C13.1905 4.07 7.72047 9.54 7.72047 16.28ZM16.5305 1.36C16.1605 1.36 15.8505 1.06 15.8505 0.68C15.8505 0.3 16.1605 0 16.5305 0H23.3105C23.6905 0 24.0005 0.3 24.0005 0.68C24.0005 1.06 23.7005 1.36 23.3205 1.36H16.5305Z" fill="#FFFFFF"/>
<path d="M27.7296 15.87C27.5196 14.2 26.2096 12.9 24.5296 12.72C23.4196 12.63 22.3396 12.96 21.4596 13.65C20.8896 14.16 20.3496 14.72 19.8596 15.31C19.3596 14.75 18.8296 14.21 18.2596 13.7C17.6596 13.2 16.9696 12.73 15.9696 12.7C14.0896 12.63 12.4896 14.01 12.2596 15.88C12.1396 16.89 12.4696 17.9 13.1496 18.66C13.8396 19.43 14.8296 19.87 15.8696 19.87C16.8596 19.87 17.6096 19.42 18.2196 18.98C18.7296 18.61 19.3096 17.99 19.8696 17.35C20.4696 18.02 21.0296 18.62 21.4896 18.97C22.2596 19.53 23.1596 19.85 24.1196 19.88C25.1596 19.88 26.1496 19.44 26.8396 18.67C27.5296 17.9 27.8496 16.88 27.7296 15.87ZM24.3896 14.04C25.4396 14.16 26.2696 14.97 26.3996 16.02C26.4796 16.65 26.2696 17.29 25.8496 17.76C25.4096 18.25 24.7796 18.53 24.1396 18.53C23.4696 18.5 22.8396 18.28 22.2996 17.89C21.9196 17.61 21.3396 16.97 20.7596 16.32C21.2396 15.74 21.7696 15.19 22.3296 14.68C22.9096 14.21 23.6496 14 24.3896 14.04ZM15.8596 14.03H15.9396C16.4996 14.05 16.9096 14.29 17.4096 14.71C17.9696 15.21 18.4996 15.76 18.9996 16.33C18.4496 16.97 17.8896 17.58 17.4596 17.89C16.9996 18.22 16.4996 18.53 15.8896 18.53C15.2296 18.53 14.5996 18.25 14.1696 17.76C13.7396 17.29 13.5396 16.66 13.6096 16.03C13.7296 14.89 14.7096 14.03 15.8596 14.03Z" fill="#FFFFFF"/>
</g>
<defs>
<clipPath id="clip0">
<rect width="40" height="30" fill="white"/>
</clipPath>
</defs>
</svg>
