<svg width="40" height="30" viewBox="0 0 40 30" fill="none" xmlns="http://www.w3.org/2000/svg">
<g clip-path="url(#clip0)">
<path d="M34.4804 11.12C33.4404 7.25 30.9604 4.02 27.4904 2.01C25.2204 0.7 22.6304 0 20.0104 0C14.6604 0 9.6804 2.87 7.0104 7.5C5.0104 10.97 4.4804 15.01 5.5104 18.88C6.5504 22.75 9.0304 25.98 12.5004 27.99C14.7804 29.3 17.3704 30 19.9904 30C25.3404 30 30.3204 27.13 32.9904 22.5C34.9904 19.03 35.5204 14.99 34.4804 11.12ZM33.7504 12.79C33.8804 13.56 33.9404 14.35 33.9304 15.13V15.27L29.3904 19.81L27.2304 18.56L33.6504 12.14L33.7504 12.79ZM32.5504 8.95C32.8304 9.53 33.0704 10.14 33.2704 10.75L33.3304 10.94L26.2704 18L24.1104 16.75L32.3404 8.52L32.5504 8.95ZM30.5604 5.91C30.7504 6.13 30.9404 6.36 31.1104 6.6C31.2904 6.84 31.4704 7.09 31.6404 7.35L31.7904 7.58L23.1604 16.21L21.0004 14.96L30.3204 5.63L30.5604 5.91ZM20.5304 1.07L20.8904 1.09C21.4504 1.13 22.0204 1.2 22.5704 1.3L23.1904 1.42L20.5304 4.08V1.07ZM20.5304 5.59L24.3604 1.76L24.5604 1.83C25.1604 2.04 25.7604 2.29 26.3204 2.58L26.7304 2.79L20.5304 9V5.59ZM20.5304 10.51L27.6704 3.37L27.9004 3.53C28.4004 3.87 28.8704 4.24 29.3104 4.64L29.5704 4.88L20.5304 13.92V10.51V10.51ZM31.5904 22.72C31.0604 23.52 30.4404 24.27 29.7604 24.94C28.9004 25.79 27.9204 26.53 26.8604 27.12C24.7704 28.3 22.3904 28.93 19.9804 28.93C18.7904 28.93 17.6004 28.78 16.4404 28.47C15.2504 28.16 14.1004 27.68 13.0304 27.06C11.4004 26.12 10.0004 24.89 8.8804 23.4C7.8004 21.97 7.0104 20.35 6.5404 18.6C6.0704 16.85 5.9504 15.06 6.1704 13.27C6.4104 11.43 7.0004 9.67 7.9404 8.03C8.5704 6.94 9.3504 5.94 10.2404 5.06C11.1004 4.21 12.0804 3.47 13.1404 2.88C14.9604 1.85 17.0204 1.24 19.1104 1.1L19.4704 1.08V14.97C19.4604 15.18 19.5604 15.37 19.7404 15.47L31.8004 22.43L31.5904 22.72ZM32.3204 21.5L30.3404 20.36L33.8504 16.85L33.6104 17.96C33.3704 19.07 32.9904 20.15 32.4804 21.18L32.3204 21.5Z" fill="#FFFFFF" stroke="#FFFFFF" stroke-width="0.2" stroke-miterlimit="10"/>
</g>
<defs>
<clipPath id="clip0">
<rect width="40" height="30" fill="white"/>
</clipPath>
</defs>
</svg>
