<svg width="40" height="30" viewBox="0 0 40 30" fill="none" xmlns="http://www.w3.org/2000/svg">
<path d="M31.9302 14.34H20.6602V3.11001C20.6602 2.75001 20.3602 2.45001 20.0002 2.45001C13.0802 2.45001 7.4502 8.08001 7.4502 15.02C7.5002 15.39 7.7902 15.66 8.1402 15.66H19.3802V26.9C19.3802 27.25 19.6902 27.56 20.0402 27.56C26.9602 27.56 32.5902 21.93 32.5902 15.01C32.5902 14.64 32.2902 14.34 31.9302 14.34ZM20.6602 26.19V15.66H31.2002C30.8902 21.27 26.3002 25.86 20.6602 26.19ZM8.8102 14.31C9.1502 8.70001 13.7302 4.11001 19.3402 3.77001V14.31H8.8102V14.31Z" fill="#FFFFFF"/>
<path d="M22.45 0C22.1 0 21.79 0.31 21.79 0.66V12.55C21.79 12.91 22.09 13.21 22.45 13.21H34.34C34.7 13.21 35 12.91 35 12.55C35 5.63 29.37 0 22.45 0ZM33.67 11.9H23.1V1.33C28.83 1.67 33.33 6.17 33.67 11.9Z" fill="#FFFFFF"/>
<path d="M17.55 16.79H5.66C5.3 16.79 5 17.09 5 17.45C5 24.37 10.63 30 17.55 30C17.91 30 18.21 29.7 18.21 29.34V17.45C18.21 17.09 17.91 16.79 17.55 16.79ZM16.89 18.11V28.65C11.26 28.34 6.66 23.76 6.32 18.11H16.89Z" fill="#FFFFFF"/>
</svg>
