<svg width="40" height="30" viewBox="0 0 40 30" fill="none" xmlns="http://www.w3.org/2000/svg">
<path d="M0 9.00001L3.95 25.8L36.06 18.25L32.11 1.45001L0 9.00001ZM34.61 17.36L4.84 24.36L1.44 9.89001L31.21 2.89001L34.61 17.36Z" fill="#FFFFFF"/>
<path d="M7.21992 9.64001L2.66992 10.71L3.77992 15.4L4.94992 15.13L4.11992 11.6L7.48992 10.81L7.21992 9.64001Z" fill="#FFFFFF"/>
<path d="M4.54004 18.65L5.58004 23.08L10.13 22.01L9.85004 20.84L6.48004 21.63L5.71004 18.37L4.54004 18.65Z" fill="#FFFFFF"/>
<path d="M31.17 12.39L31.94 15.65L28.46 16.47L28.74 17.63L33.38 16.54L32.34 12.11L31.17 12.39Z" fill="#FFFFFF"/>
<path d="M31.5801 8.87001L30.4701 4.17001L25.8301 5.26001L26.1001 6.43001L29.5801 5.61001L30.4101 9.14001L31.5801 8.87001Z" fill="#FFFFFF"/>
<path d="M35.1005 5.45001L38.5605 20.14L7.73047 27.38L8.00047 28.55L40.0005 21.03L36.2705 5.17001L35.1005 5.45001Z" fill="#FFFFFF"/>
<path d="M16.5605 7.38001C13.1205 8.19001 10.9805 11.65 11.7905 15.09C12.6005 18.53 16.0605 20.67 19.5005 19.86C22.9405 19.05 25.0805 15.59 24.2705 12.15C23.4605 8.72001 20.0005 6.57001 16.5605 7.38001ZM19.2505 18.83C16.3805 19.5 13.5005 17.72 12.8205 14.85C12.1505 11.98 13.9305 9.10001 16.8005 8.42001C19.6705 7.75001 22.5505 9.53001 23.2305 12.4C23.9105 15.27 22.1205 18.15 19.2505 18.83Z" fill="#FFFFFF"/>
<path d="M19.7502 14.3C19.5602 13.48 18.7402 12.98 17.9202 13.17C17.6102 13.24 17.2902 13.05 17.2202 12.74C17.1502 12.43 17.3402 12.11 17.6502 12.04C17.9302 11.98 18.2202 12.12 18.3202 12.39L18.4002 12.59L19.3102 12.38L19.2202 12.12C19.0402 11.61 18.5802 11.22 18.0402 11.12L17.9102 11.1L17.7302 10.35L16.8202 10.56L17.0002 11.3L16.9002 11.38C16.4102 11.74 16.1802 12.37 16.3102 12.95C16.5002 13.77 17.3202 14.27 18.1402 14.08C18.4502 14.01 18.7702 14.2 18.8402 14.52C18.9102 14.83 18.7202 15.15 18.4102 15.22C18.1302 15.28 17.8402 15.14 17.7402 14.87L17.6602 14.67L16.7502 14.88L16.8402 15.14C17.0202 15.65 17.4802 16.04 18.0202 16.14L18.1502 16.16L18.3302 16.91L19.2402 16.7L19.0602 15.95L19.1602 15.87C19.6502 15.51 19.8902 14.88 19.7502 14.3Z" fill="#FFFFFF"/>
</svg>
