<svg width="40" height="30" viewBox="0 0 40 30" fill="none" xmlns="http://www.w3.org/2000/svg">
<path d="M23.1299 18.9798V12.1798C23.1299 11.8098 22.8299 11.5098 22.4699 11.5098H20.2899C19.9199 11.5098 19.6299 11.8098 19.6299 12.1798V18.9798H20.9599V12.8398H21.8099V18.9798H23.1299Z" fill="#ffffff"/>
<path d="M17.6904 18.7901V10.0001C17.6904 9.63008 17.3904 9.33008 17.0304 9.33008H14.8504C14.4804 9.33008 14.1904 9.63008 14.1904 10.0001V17.7001H15.5204V10.6701H16.3704V18.8001H17.6904V18.7901Z" fill="#ffffff"/>
<path d="M28.5705 14.4698V8.92977C28.5705 8.55977 28.2705 8.25977 27.9105 8.25977H25.7305C25.3605 8.25977 25.0605 8.55977 25.0605 8.92977V15.0198H26.3905V9.58977H27.2405V14.4698H28.5705V14.4698Z" fill="#ffffff"/>
<path d="M34.9502 16.8398C34.2602 16.1498 33.2002 15.9998 32.3502 16.4498C32.0202 15.9998 31.5502 15.6898 31.0002 15.5698C30.4102 15.4398 29.8102 15.5498 29.3102 15.8798C29.0902 16.0198 28.8902 16.2098 28.7302 16.4198L28.5702 16.6398C28.4702 16.5698 28.3702 16.5098 28.2702 16.4598C27.6802 16.1698 27.0102 16.1198 26.3902 16.3298C25.7702 16.5398 25.2602 16.9798 24.9702 17.5598L23.5902 20.6098C23.3202 20.5198 23.0302 20.4698 22.7502 20.4698H16.2002L15.3002 19.5698C13.9102 18.1798 11.7702 17.8598 10.0402 18.7398V17.3398C10.0402 16.9698 9.74016 16.6698 9.38016 16.6698H4.41016V28.3298H9.37016C9.74016 28.3298 10.0302 28.0298 10.0302 27.6698V26.5098C12.5702 28.7498 15.8102 29.9898 19.1902 29.9898C22.8802 29.9898 26.3602 28.5498 28.9802 25.9198L34.9502 19.9598C35.3702 19.5398 35.6002 18.9898 35.6002 18.3998C35.5902 17.8198 35.3602 17.2598 34.9502 16.8398ZM22.7402 24.2898H15.8002V25.6198H22.7402C23.4502 25.6198 24.1202 25.3298 24.6102 24.8198C25.8902 24.2798 27.0302 23.5198 28.0002 22.5498L32.7602 17.7898C33.1002 17.4498 33.6602 17.4498 34.0002 17.7898C34.3402 18.1298 34.3402 18.6898 34.0002 19.0298L28.0302 24.9898C25.6702 27.3498 22.5302 28.6498 19.1802 28.6498C15.8302 28.6498 12.6902 27.3498 10.3302 24.9898L10.0202 24.6798V20.3298C11.2802 19.2698 13.1702 19.3398 14.3402 20.5098L15.4302 21.5998C15.5602 21.7298 15.7202 21.7898 15.9002 21.7898H22.7202C23.4102 21.7898 23.9602 22.3498 23.9602 23.0298C23.9902 23.7298 23.4302 24.2898 22.7402 24.2898ZM25.6702 22.7498L29.7902 17.2198C29.9702 16.9798 30.2302 16.8498 30.5202 16.8498C30.6802 16.8498 30.8502 16.8998 30.9902 16.9798C31.1302 17.0698 31.2502 17.1898 31.3202 17.3298L27.0502 21.5998C26.6302 22.0298 26.1702 22.4198 25.6702 22.7498ZM26.7602 17.6098C27.0402 17.4998 27.3502 17.5098 27.6602 17.6498C27.7002 17.6698 27.7302 17.6898 27.7602 17.7098L24.8602 21.5898C24.8102 21.5098 24.7502 21.4398 24.6902 21.3698L26.1202 18.1998C26.2502 17.9298 26.4702 17.7198 26.7602 17.6098ZM8.70016 18.0198V27.0198H5.74016V18.0198H8.70016Z" fill="#ffffff"/>
<path d="M22.3503 8.35996L17.4903 3.49996L12.9803 8.00996L12.0703 7.09996L17.4903 1.67996L22.3503 6.53996L28.6803 0.209961L29.5903 1.11996L22.3503 8.35996Z" fill="#ffffff"/>
<path d="M29.6002 6.29L28.3202 6.25L28.4702 1.33L23.2802 1.5L23.2402 0.21L29.8002 0L29.6002 6.29Z" fill="#ffffff"/>
</svg>
