<svg width="40" height="30" viewBox="0 0 40 30" fill="none" xmlns="http://www.w3.org/2000/svg">
<path d="M3.30957 0V30H36.6996V0H3.30957ZM4.51957 6.72H35.4696V28.78H4.51957V6.72ZM35.4796 5.5H4.51957V1.22H35.4696V5.5H35.4796Z" fill="#ffffff"/>
<path d="M6.23926 13.4302H11.4293V8.24023H6.23926V13.4302ZM10.2093 9.46023V12.2102H7.44926V9.46023H10.2093Z" fill="#ffffff"/>
<path d="M13.6494 13.4302H18.8394V8.24023H13.6494V13.4302V13.4302ZM17.6194 9.46023V12.2102H14.8694V9.46023H17.6194Z" fill="#ffffff"/>
<path d="M28.4697 13.4302H33.6597V8.24023H28.4697V13.4302V13.4302ZM32.4497 9.46023V12.2102H29.6997V9.46023H32.4497Z" fill="#ffffff"/>
<path d="M21.0596 13.4302H26.2496V8.24023H21.0596V13.4302ZM25.0296 9.46023V12.2102H22.2796V9.46023H25.0296Z" fill="#ffffff"/>
<path d="M6.23926 20.1402H11.4293V14.9502H6.23926V20.1402ZM10.2093 16.1702V18.9202H7.44926V16.1702H10.2093Z" fill="#ffffff"/>
<path d="M13.6494 20.1402H18.8394V14.9502H13.6494V20.1402V20.1402ZM17.6194 16.1702V18.9202H14.8694V16.1702H17.6194Z" fill="#ffffff"/>
<path d="M21.0596 20.1402H26.2496V14.9502H21.0596V20.1402ZM25.0296 16.1702V18.9202H22.2796V16.1702H25.0296Z" fill="#ffffff"/>
</svg>
