<svg width="40" height="30" viewBox="0 0 40 30" fill="none" xmlns="http://www.w3.org/2000/svg">
<path d="M35.43 0H4.56996C3.26996 0 2.20996 1.06 2.20996 2.36V21.93C2.20996 23.23 3.26996 24.29 4.56996 24.29H14.1L19.54 29.81C19.63 29.9 19.77 29.95 20.01 30H20.03H20.06C20.21 29.99 20.35 29.92 20.45 29.82L25.98 24.29H35.43C36.73 24.29 37.79 23.23 37.79 21.93V2.36C37.79 1.06 36.73 0 35.43 0ZM36.49 2.36V21.93C36.49 22.52 36.01 23 35.42 23H25.7C25.53 23 25.36 23.07 25.24 23.19L20 28.44L14.83 23.19C14.71 23.06 14.55 23 14.37 23H4.56996C3.97996 23 3.49996 22.52 3.49996 21.93V2.36C3.49996 1.77 3.97996 1.29 4.56996 1.29H35.43C36.02 1.29 36.49 1.77 36.49 2.36Z" fill="#ffffff"/>
<path d="M19.9996 17.9902C19.3696 17.9902 18.8496 18.5102 18.8496 19.1402C18.8496 19.7702 19.3696 20.2902 19.9996 20.2902C20.6296 20.2902 21.1496 19.7702 21.1496 19.1402C21.1496 18.5002 20.6296 17.9902 19.9996 17.9902Z" fill="#ffffff"/>
<path d="M20.14 5.43018C17.92 5.43018 16.02 6.70018 15.29 8.67018C15.22 8.85018 15.23 9.05018 15.31 9.23018C15.39 9.41018 15.54 9.54018 15.72 9.61018C15.9 9.68018 16.1 9.67018 16.28 9.59018C16.46 9.51018 16.59 9.36018 16.66 9.18018C17.28 7.50018 18.86 6.90018 20.13 6.90018C21.3 6.90018 22.77 7.57018 23.17 8.81018C23.55 9.99018 22.97 11.4002 22.21 11.9402C20.78 12.9602 19.31 14.2002 19.31 15.7202C19.31 16.1202 19.64 16.4502 20.04 16.4502C20.44 16.4502 20.77 16.1202 20.77 15.7202C20.77 15.3002 21.01 14.5802 23.05 13.1302C24.24 12.2802 25.13 10.1702 24.55 8.36018C23.96 6.43018 21.88 5.43018 20.14 5.43018Z" fill="#ffffff"/>
</svg>
