<svg width="40" height="30" viewBox="0 0 40 30" fill="none" xmlns="http://www.w3.org/2000/svg">
<path d="M28.1504 8.01V3.29H30.2704C30.6104 3.29 30.8904 3.01 30.8904 2.67V0.62C30.8904 0.28 30.6104 0 30.2704 0H9.73035C9.39035 0 9.11035 0.28 9.11035 0.62V2.67C9.11035 3.01 9.39035 3.29 9.73035 3.29H11.8504V8.01C11.8504 11.23 13.9004 14.08 16.9604 15.1L17.1004 15.15L15.7004 15.93C13.3304 17.25 11.8604 19.75 11.8604 22.45V26.71H9.73035C9.39035 26.71 9.11035 26.99 9.11035 27.33V29.37C9.11035 29.71 9.39035 29.99 9.73035 29.99H30.2704C30.6104 29.99 30.8904 29.71 30.8904 29.37V27.33C30.8904 26.99 30.6104 26.71 30.2704 26.71H28.1504V22.45C28.1504 19.74 26.6804 17.24 24.3104 15.93L22.9104 15.15L23.0504 15.1C26.1004 14.08 28.1504 11.23 28.1504 8.01ZM10.3504 28.76V27.96H29.6504V28.76H10.3504ZM29.6504 1.24V2.04H10.3504V1.24H29.6504ZM21.1704 14.41C20.9404 14.49 20.7804 14.7 20.7504 14.95C20.7304 15.19 20.8604 15.42 21.0704 15.54L23.7104 17.01C25.6904 18.1 26.9104 20.19 26.9104 22.45V22.66L26.8104 22.59C24.0004 20.74 21.1104 20.54 20.0004 20.54C17.0004 20.54 14.6404 21.66 13.1904 22.6L13.0904 22.66V22.45C13.0904 20.19 14.3204 18.1 16.2904 17.01L18.9304 15.54C19.1404 15.42 19.2604 15.19 19.2404 14.94C19.2204 14.7 19.0504 14.49 18.8104 14.41L17.3304 13.92C16.2004 13.55 15.2004 12.85 14.4404 11.9L14.3904 11.84L14.4504 11.8C15.3904 11.22 16.3204 10.89 17.2204 10.83C18.2304 10.76 18.9604 11.03 19.8304 11.33C20.5704 11.58 21.4804 11.9 22.7004 12.07C23.4404 12.17 24.1704 12.21 24.9204 12.18L25.3104 12.17L25.2004 12.28C24.4904 13.03 23.6004 13.59 22.6404 13.91L21.1704 14.41ZM26.9104 26.71H13.0904V24.2L13.1104 24.18C14.2504 23.28 16.6604 21.78 20.0004 21.78C21.1604 21.78 24.1504 22.01 26.8904 24.18L26.9104 26.71ZM13.0904 3.29H26.9104V8.01C26.9104 9 26.6904 9.94 26.2504 10.82L26.2304 10.85H26.0904C25.0004 10.99 23.9204 10.99 22.8904 10.85C21.7904 10.7 21.0104 10.43 20.2604 10.17C19.4104 9.88 18.6004 9.6 17.5604 9.6C17.4404 9.6 17.3104 9.6 17.1704 9.61C16.0704 9.68 14.9404 10.06 13.8204 10.76L13.7604 10.8L13.7304 10.74C13.3104 9.89 13.1004 8.98 13.1004 8.02V3.29H13.0904Z" fill="#ffffff"/>
</svg>
