<svg width="40" height="30" viewBox="0 0 40 30" fill="none" xmlns="http://www.w3.org/2000/svg">
<path d="M39.3597 9.41979C39.1897 8.86979 39.0197 8.25979 38.8497 7.62979C38.3697 5.83979 37.8597 3.99979 37.0397 2.79979C36.5797 2.15979 35.7897 1.81979 34.9697 1.90979C34.2097 1.98979 33.5897 2.41979 33.3097 3.06979C32.5297 4.77979 33.0497 7.61979 33.4897 9.33979C32.3397 9.66979 31.4597 11.3898 31.0097 12.4598C30.3297 14.3498 27.6497 17.5798 27.6397 17.5898C26.0497 19.1298 26.2297 21.5898 26.7097 23.5098H26.6797C26.3497 23.5098 26.0697 23.7498 25.9697 24.1598V29.2498C25.9697 29.6298 26.2697 29.9598 26.6197 29.9598L36.0597 29.9998C36.2297 29.9998 36.4097 29.9298 36.5197 29.8098C36.6297 29.6998 36.7097 29.5098 36.7097 29.3498V24.2598C36.7097 23.8798 36.4097 23.5498 36.0597 23.5498H35.6797C36.5297 21.2098 37.9397 18.4598 38.4897 17.3898C38.6097 17.1598 38.6697 17.0398 38.6997 16.9698C40.4397 14.0298 39.8697 10.9698 39.3597 9.41979ZM35.3497 24.9098V28.6398H27.3897V24.9098H35.3497ZM37.2697 16.8198C36.6697 17.9898 35.0997 21.0398 34.2297 23.5498H28.1397C27.7797 22.3598 27.2697 19.8698 28.6597 18.5298C28.6797 18.5098 28.7297 18.4398 28.8197 18.3298C30.6697 15.9898 31.8397 14.1898 32.2897 12.9798C32.6297 12.1298 33.3497 10.8598 33.8297 10.6998C33.8697 10.6898 33.8997 10.6898 33.9297 10.6898C34.7397 11.8698 34.6097 13.2898 33.5697 14.4998C32.8097 15.4298 32.3497 16.5498 32.1497 17.0298C32.1197 17.1098 32.0897 17.1798 32.1197 17.1498L32.0697 17.1998L32.0497 17.2698C31.9597 17.6398 32.1597 17.9998 32.5197 18.0898C32.8897 18.1798 33.2497 17.9798 33.3297 17.6298C33.3297 17.6198 33.7597 16.2598 34.5897 15.3298C36.0197 13.6398 36.1797 11.5498 35.0097 9.85979C34.6997 8.89979 33.7597 5.26979 34.4697 3.59979C34.5497 3.39979 34.7797 3.25979 35.0497 3.22979C35.3197 3.18979 35.6797 3.27979 35.8997 3.59979C36.6397 4.60979 37.1397 6.47979 37.5797 8.12979C37.7397 8.70979 37.8897 9.27979 38.0397 9.77979C38.4697 11.1798 38.9697 13.8798 37.4997 16.3598C37.4697 16.4198 37.3897 16.5798 37.2697 16.8198Z" fill="#ffffff"/>
<path d="M13.2599 23.5502H13.2299C13.7199 21.6402 13.8999 19.1802 12.3699 17.6502C12.3399 17.6202 9.68986 14.3902 8.98986 12.4602C8.87986 12.1602 7.94986 9.73023 6.50986 9.34023C6.94986 7.62023 7.46986 4.79023 6.68986 3.08023C6.40986 2.43023 5.78986 2.00023 5.02986 1.92023C4.19986 1.82023 3.40986 2.17023 2.95986 2.80023C2.07986 4.01023 1.59986 5.86023 1.11986 7.65023C0.959862 8.26023 0.799862 8.87023 0.629862 9.42023C0.229862 10.6702 -0.520138 13.9102 1.23986 16.9802C1.26986 17.0402 1.31986 17.1402 1.41986 17.3402C1.92986 18.3002 3.42986 21.1402 4.25986 23.5602H3.88986C3.50986 23.5602 3.23986 23.8602 3.23986 24.2702V29.3602C3.23986 29.5302 3.30986 29.7102 3.42986 29.8202L3.53986 29.8902C3.58986 29.9102 3.62986 29.9202 3.65986 29.9402C3.72986 29.9602 3.81986 30.0002 3.93986 30.0002L13.2499 29.9502C13.6299 29.9502 13.8999 29.6502 13.8999 29.2402V24.1902C13.9299 24.0602 13.8999 23.9302 13.8199 23.8102C13.7099 23.6502 13.4999 23.5502 13.2599 23.5502ZM4.64986 28.6402V24.9102H12.6099V28.6402H4.64986ZM4.94986 9.86023C3.77986 11.5002 3.93986 13.6402 5.36986 15.3302C6.13986 16.2602 6.61986 17.6302 6.62986 17.6402C6.71986 17.9102 6.97986 18.1002 7.26986 18.1002L7.44986 18.0902C7.80986 18.0002 8.00986 17.6402 7.92986 17.3402C7.92986 17.1702 7.37986 15.6402 6.38986 14.5002C5.37986 13.3102 5.25986 11.8902 6.04986 10.6802C6.06986 10.6702 6.10986 10.6702 6.14986 10.6802C6.57986 10.8102 7.27986 11.9702 7.67986 12.9602C8.12986 14.2102 9.29986 16.0302 11.1499 18.3802C11.2299 18.4902 11.2899 18.5502 11.3499 18.6302C12.3099 19.5102 12.4599 21.1902 11.8199 23.6102H5.71986C4.71986 20.5202 2.59986 16.6102 2.42986 16.3302C0.979862 13.8902 1.47986 11.1902 1.90986 9.80023C2.05986 9.32023 2.19986 8.78023 2.35986 8.22023C2.81986 6.54023 3.33986 4.64023 4.04986 3.62023C4.23986 3.37023 4.55986 3.25023 4.88986 3.27023C5.16986 3.30023 5.38986 3.43023 5.48986 3.63023C6.20986 5.20023 5.35986 8.62023 4.94986 9.86023Z" fill="#ffffff"/>
<path d="M26.1701 14.95V6.84C26.1701 5.86 25.4501 5.02 24.4501 4.86L24.2901 4.83V4.23C24.2901 2.07 22.6001 0.22 20.4501 0H19.4301C17.3001 0.22 15.6401 2.07 15.6401 4.22V4.83L15.4801 4.86C14.5201 5.03 13.8301 5.87 13.8301 6.84V15.02C13.8301 16.13 14.7301 17.03 15.8401 17.03L24.2001 17.01C25.2901 17.02 26.1701 16.09 26.1701 14.95ZM17.0501 4.23C17.0501 2.68 18.3101 1.42 19.8601 1.42H20.0601C21.6101 1.42 22.8701 2.68 22.8701 4.23V4.83H17.0401V4.23H17.0501ZM15.8401 15.69C15.4801 15.69 15.2401 15.45 15.2401 15.09V6.84C15.2401 6.48 15.4801 6.24 15.8401 6.24H23.6201C24.3301 6.24 24.5201 6.35 24.6101 6.44C24.7701 6.6 24.7701 6.92 24.7601 7.56V15.08C24.7601 15.44 24.5201 15.68 24.1601 15.68H15.8401V15.69Z" fill="#ffffff"/>
<path d="M21.6103 11.37C21.9703 10.95 22.1703 10.43 22.1703 9.90998C22.1703 8.70998 21.1903 7.72998 19.9903 7.72998C18.7903 7.72998 17.8203 8.70998 17.8203 9.90998C17.8203 10.43 18.0203 10.95 18.3803 11.37L18.4403 11.44L18.0803 13.37C18.0403 13.57 18.0903 13.78 18.2203 13.93C18.3503 14.08 18.5403 14.18 18.7203 14.18H21.2603C21.4703 14.18 21.6503 14.1 21.7703 13.95C21.9003 13.8 21.9403 13.59 21.9003 13.37L21.5403 11.44L21.6103 11.37ZM20.3803 10.58C20.1703 10.78 20.1103 11.04 20.1203 11.33C20.1303 11.6 20.3803 12.83 20.4403 12.83H19.5403C19.6403 12.83 19.8803 11.47 19.8803 11.32C19.8803 11.06 19.8403 10.84 19.6603 10.64C19.4503 10.41 19.1703 10.28 19.1703 9.90998C19.1703 9.44998 19.5203 9.09998 19.9803 9.09998C20.4403 9.09998 20.7903 9.44998 20.7903 9.90998C20.8103 10.21 20.5803 10.39 20.3803 10.58Z" fill="#ffffff"/>
</svg>
