<svg width="40" height="30" viewBox="0 0 40 30" fill="none" xmlns="http://www.w3.org/2000/svg">
<g clip-path="url(#clip0)">
<path d="M35.9399 16.0102C35.2099 15.2802 34.0799 15.1202 33.1799 15.6202C32.8399 15.1302 32.3299 14.7902 31.7399 14.6702C31.1199 14.5402 30.4899 14.6502 29.9599 14.9902C29.7199 15.1402 29.5199 15.3402 29.3499 15.5602L29.1599 15.8202C29.0499 15.7402 28.9399 15.6702 28.8199 15.6102C27.5399 14.9702 25.9799 15.4902 25.3399 16.7702L23.8599 20.0502C23.5599 19.9402 23.2499 19.8902 22.9399 19.8902H15.9299L14.9599 18.9202C13.4699 17.4402 11.1799 17.1002 9.32988 18.0702V16.5202C9.32988 16.1502 9.02988 15.8502 8.65988 15.8502H3.37988V28.2402H8.63988C9.00988 28.2402 9.30988 27.9402 9.30988 27.5702V26.2502C12.0299 28.6702 15.4999 30.0102 19.1299 30.0102C23.0599 30.0102 26.7699 28.4702 29.5599 25.6802L35.9299 19.3102C36.3699 18.8702 36.6099 18.2902 36.6099 17.6702C36.6199 17.0302 36.3799 16.4502 35.9399 16.0102ZM22.9299 23.9702H15.5499V25.3202H22.9299C23.6799 25.3202 24.3899 25.0102 24.9099 24.4702C26.2799 23.9002 27.4899 23.0902 28.5199 22.0502L33.6099 16.9602C33.7899 16.7802 34.0399 16.6802 34.2999 16.6802C34.5599 16.6802 34.8099 16.7802 34.9899 16.9702C35.3699 17.3502 35.3699 17.9702 34.9899 18.3502L28.6199 24.7202C26.0899 27.2502 22.7299 28.6402 19.1399 28.6402C15.5599 28.6402 12.1899 27.2502 9.65988 24.7202L9.31988 24.3802V19.7002C10.6799 18.5402 12.7299 18.6202 13.9999 19.8802L15.1699 21.0502C15.2999 21.1802 15.4699 21.2502 15.6499 21.2502H22.9399C23.6899 21.2502 24.3099 21.8602 24.3099 22.6202C24.2899 23.3602 23.6799 23.9702 22.9299 23.9702ZM25.8999 22.4302L30.4199 16.3602C30.6099 16.1002 30.9099 15.9502 31.2299 15.9502C31.4099 15.9502 31.5999 16.0002 31.7499 16.1002C31.9199 16.2002 32.0499 16.3402 32.1299 16.5202L27.5499 21.1002C27.0599 21.6002 26.5099 22.0502 25.8999 22.4302ZM27.2099 16.7702C27.5199 16.6502 27.8599 16.6602 28.1999 16.8202C28.2499 16.8502 28.2999 16.8702 28.3499 16.9102L25.1999 21.1302C25.1299 21.0302 25.0599 20.9302 24.9799 20.8402L26.5199 17.4302C26.6499 17.1202 26.8999 16.8802 27.2099 16.7702ZM7.96988 17.2002V26.8902H4.72988V17.2002H7.96988Z" fill="#ffffff"/>
<path d="M19.4103 13.18C23.0403 13.18 26.0003 10.22 26.0003 6.59C26.0003 2.96 23.0503 0 19.4103 0C15.7803 0 12.8203 2.96 12.8203 6.59C12.8203 10.22 15.7803 13.18 19.4103 13.18ZM14.1103 6.59C14.1103 3.67 16.4903 1.29 19.4103 1.29C22.3303 1.29 24.7103 3.67 24.7103 6.59C24.7103 9.51 22.3303 11.89 19.4103 11.89C16.4903 11.9 14.1103 9.52 14.1103 6.59Z" fill="#ffffff"/>
<path d="M19.4098 8.18014C19.1898 8.18014 18.9998 8.02014 18.9598 7.80014L18.8998 7.43014H17.5498L17.5998 7.92014C17.6698 8.58014 18.1098 9.16014 18.7198 9.41014V10.3001H20.0798V9.40014C20.7498 9.13014 21.2098 8.46014 21.2098 7.72014C21.2098 6.72014 20.3998 5.91014 19.3998 5.91014C19.1498 5.91014 18.9498 5.71014 18.9498 5.46014C18.9498 5.21014 19.1498 5.01014 19.3998 5.01014C19.6198 5.01014 19.8098 5.17014 19.8498 5.39014L19.9098 5.76014H21.2598L21.2098 5.27014C21.1398 4.61014 20.6998 4.03014 20.0898 3.78014V2.89014H18.7298V3.78014C18.0498 4.05014 17.5998 4.72014 17.5998 5.46014C17.5998 6.46014 18.4098 7.27014 19.4098 7.27014C19.6598 7.27014 19.8598 7.47014 19.8598 7.72014C19.8598 7.97014 19.6598 8.18014 19.4098 8.18014Z" fill="#ffffff"/>
</g>
<defs>
<clipPath id="clip0">
<rect width="40" height="30" fill="white"/>
</clipPath>
</defs>
</svg>
