<svg width="40" height="30" viewBox="0 0 40 30" fill="none" xmlns="http://www.w3.org/2000/svg">
<path d="M8.50977 0V30H31.4898V0H8.50977ZM9.67977 28.83V1.17H30.3198V28.83H9.67977Z" fill="#ffffff"/>
<path d="M11.0498 27.55H28.9398V16.79H11.0498V27.55ZM27.7598 17.98V26.37H12.2398V17.98H27.7598Z" fill="#ffffff"/>
<path d="M26.3596 19.3101H13.6396V20.5001H26.3596V19.3101Z" fill="#ffffff"/>
<path d="M26.3596 21.5801H13.6396V22.7701H26.3596V21.5801Z" fill="#ffffff"/>
<path d="M26.3595 23.8501H20.2695V25.0401H26.3595V23.8501Z" fill="#ffffff"/>
<path d="M18.8996 23.8501H13.6396V25.0401H18.8996V23.8501Z" fill="#ffffff"/>
<path d="M19.9997 14.7202C23.1897 14.7202 25.7797 12.1302 25.7797 8.94016C25.7797 5.75016 23.1897 3.16016 19.9997 3.16016C16.8097 3.16016 14.2197 5.75016 14.2197 8.94016C14.2197 12.1202 16.8097 14.7202 19.9997 14.7202ZM15.4097 8.94016C15.4097 6.41016 17.4697 4.35016 19.9997 4.35016C22.5297 4.35016 24.5897 6.41016 24.5897 8.94016C24.5897 11.4702 22.5297 13.5402 19.9997 13.5402C17.4697 13.5302 15.4097 11.4702 15.4097 8.94016Z" fill="#ffffff"/>
<path d="M19.9998 10.2902C19.8198 10.2902 19.6698 10.1602 19.6398 9.98018L19.5798 9.63018H18.3398L18.3898 10.0902C18.4498 10.6702 18.8398 11.1802 19.3698 11.4002V12.1902H20.6198V11.4002C21.2098 11.1502 21.6098 10.5702 21.6098 9.92018C21.6098 9.03018 20.8898 8.31018 19.9998 8.31018C19.7998 8.31018 19.6398 8.15018 19.6398 7.95018C19.6398 7.75018 19.7998 7.59018 19.9998 7.59018C20.1798 7.59018 20.3298 7.72018 20.3598 7.90018L20.4198 8.25018H21.6598L21.5998 7.78018C21.5398 7.20018 21.1498 6.69018 20.6198 6.47018V5.68018H19.3698V6.47018C18.7798 6.72018 18.3798 7.30018 18.3798 7.95018C18.3798 8.84018 19.0998 9.56018 19.9898 9.56018C20.1898 9.56018 20.3498 9.72018 20.3498 9.92018C20.3598 10.1302 20.1998 10.2902 19.9998 10.2902Z" fill="#ffffff"/>
</svg>
