<svg width="40" height="30" viewBox="0 0 40 30" fill="none" xmlns="http://www.w3.org/2000/svg">
<path d="M36.6003 14.29V14.23L31.7504 5.7C31.6304 5.52 31.4404 5.41 31.2304 5.41H25.8004C25.6004 2.41 23.0504 0 20.0004 0C16.9504 0 14.4004 2.41 14.2104 5.42H8.85035C8.65035 5.42 8.44035 5.54 8.32035 5.72L3.43035 14.2L3.41035 14.28C3.38035 14.33 3.36035 14.4 3.36035 14.5V15.07C3.36035 18.07 5.80035 20.52 8.81035 20.52C11.8104 20.52 14.2604 18.08 14.2604 15.07V14.5C14.2604 14.46 14.2604 14.4 14.2204 14.32V14.26L9.87035 6.62H14.2604C14.5804 8.74 15.9904 10.48 18.0104 11.22V26.89H11.7704C11.4204 26.89 11.1704 27.14 11.1704 27.49V29.39C11.1704 29.74 11.4204 29.99 11.7704 29.99H28.2704C28.6204 29.99 28.8704 29.74 28.8704 29.39V27.49C28.8704 27.14 28.6204 26.89 28.2704 26.89H22.0304V11.22C24.0104 10.49 25.4604 8.72 25.7804 6.62H30.2004L25.8204 14.2L25.7504 14.44V15.07C25.7504 18.07 28.1904 20.52 31.2004 20.52C34.2004 20.52 36.6504 18.08 36.6504 15.07V14.46C36.6404 14.43 36.6403 14.36 36.6003 14.29ZM35.4304 15.1C35.4104 17.43 33.5204 19.31 31.1904 19.31C28.8604 19.31 26.9604 17.42 26.9504 15.1H35.4304V15.1ZM27.3804 13.86L31.2304 7.22L35.0103 13.86H27.3804ZM20.0004 10.41C17.4604 10.41 15.4004 8.35 15.4004 5.81C15.4004 3.27 17.4604 1.21 20.0004 1.21C22.5404 1.21 24.6004 3.27 24.6004 5.81C24.6004 8.35 22.5404 10.41 20.0004 10.41ZM19.2104 11.55C19.7504 11.63 20.2804 11.63 20.7904 11.55V26.82H19.2104V11.55ZM27.6704 28.1V28.8H12.3704V28.1H27.6704ZM5.00035 13.9L8.85035 7.26L12.6304 13.9H5.00035ZM13.0504 15.1C13.0304 17.43 11.1404 19.31 8.81035 19.31C6.48035 19.31 4.58035 17.42 4.57035 15.1H13.0504V15.1Z" fill="#ffffff"/>
<path d="M19.7506 4.2H20.3606C20.5806 4.2 20.7306 4.31 20.8106 4.54C20.9306 4.85 21.2906 5.01 21.5906 4.89C21.7306 4.83 21.8506 4.72 21.9206 4.57C21.9906 4.42 22.0006 4.25 21.9406 4.11C21.7206 3.52 21.2006 3.1 20.6006 3.01V2.35C20.6006 2 20.3506 1.75 20.0006 1.75C19.6506 1.75 19.4006 2 19.4006 2.35V3.07C18.5906 3.24 18.0106 3.94 18.0106 4.78C18.0106 5.72 18.7406 6.48 19.7206 6.52H20.2506C20.5706 6.52 20.7906 6.72 20.7906 7.02V7.09C20.7906 7.37 20.5506 7.59 20.2506 7.59H19.7206C19.4906 7.59 19.2306 7.43 19.1606 7.25C19.0406 6.94 18.6806 6.78 18.3806 6.9C18.2406 6.96 18.1206 7.07 18.0506 7.22C17.9806 7.37 17.9706 7.54 18.0306 7.67C18.2106 8.2 18.7606 8.65 19.3706 8.77V9.4C19.3706 9.75 19.6206 10 19.9706 10C20.3206 10 20.5706 9.75 20.5706 9.4V8.77C21.3706 8.62 21.9606 7.93 21.9606 7.09V7.03C21.9806 6.56 21.8206 6.12 21.5106 5.79C21.1906 5.46 20.7506 5.27 20.2606 5.27H19.7606C19.4706 5.27 19.2206 5.02 19.2206 4.73C19.2206 4.44 19.4606 4.2 19.7506 4.2Z" fill="#ffffff"/>
</svg>
