<svg width="40" height="30" viewBox="0 0 40 30" fill="none" xmlns="http://www.w3.org/2000/svg">
<path d="M33.4501 20.71L33.5601 20.58C34.1401 19.88 34.4401 19 34.4201 18.08C34.3801 17.38 34.1401 16.71 33.7101 16.14L33.6201 16L33.6901 15.84C34.2301 14.61 33.9101 13.17 32.9101 12.28C32.8301 12.21 32.7601 12.15 32.6801 12.09C32.3101 11.82 31.8701 11.62 31.4001 11.52L31.3301 11.51C28.9101 10.99 27.2501 10.96 24.8101 10.96H24.5601L24.5201 10.71C24.4101 10.06 24.4401 8.82 25.1801 6.59C25.8301 4.62 25.7801 3 25.0301 1.77C24.4101 0.8 23.4001 0.16 22.2401 0H22.1601C22.1601 0 22.1601 0 22.1501 0C21.3901 0 20.7401 0.47 20.5201 1.18C20.5101 1.21 20.5101 1.24 20.5001 1.27L20.2201 3.28C20.1301 3.92 19.9501 4.53 19.6701 5.11L16.9501 10.83C16.5001 11.86 15.5701 12.62 14.4601 12.85L14.1001 12.93V12.12C14.1001 11.26 13.4001 10.56 12.5401 10.56H7.14008C6.28008 10.56 5.58008 11.26 5.58008 12.12V28.44C5.58008 29.3 6.28008 30 7.14008 30H12.5401C13.3601 30 14.0401 29.36 14.1001 28.55L14.1301 28.06L15.7101 29C16.7601 29.63 17.9701 29.97 19.2001 29.97H27.0801C28.0401 29.97 28.9101 29.79 29.7401 29.44C32.3901 28.26 32.4001 26.2 32.2801 25.37L32.2601 25.2L32.3901 25.09C33.6101 24.06 34.0701 22.37 33.5101 20.87L33.4501 20.71ZM32.1701 20.95C32.5901 21.68 32.8601 23.25 31.1901 24.48C30.9701 24.65 30.8801 24.93 30.9701 25.2C31.2901 26.14 31.0301 27.52 29.2601 28.3C28.6001 28.58 27.9101 28.72 27.2001 28.72H19.1901C18.1901 28.72 17.2101 28.45 16.3501 27.93L14.1001 26.58V14.21L14.5501 14.14C16.1301 13.86 17.4501 12.81 18.0801 11.34L20.7801 5.63C21.1101 4.93 21.3301 4.19 21.4401 3.43L21.7401 1.44L21.8101 1.37C21.8601 1.32 21.9301 1.28 22.0001 1.27L22.0601 1.26L22.1201 1.27C22.8601 1.39 23.5201 1.81 23.9301 2.43C24.4801 3.31 24.4901 4.62 23.9701 6.2C23.2701 8.32 23.0401 9.99 23.3101 11.15C23.4501 11.77 24.0301 12.23 24.6501 12.23C24.6601 12.23 24.6601 12.23 24.6701 12.23C27.1601 12.23 28.6801 12.25 31.0501 12.75H31.1001C31.3901 12.8 31.6701 12.92 31.9001 13.08L32.0401 13.2C32.9301 14 32.7501 15.08 32.3301 15.76C32.1601 16.03 32.2101 16.37 32.4301 16.57C32.8601 17.01 33.1201 17.55 33.1701 18.17C33.1501 18.94 32.8001 19.68 32.2201 20.21C32.0501 20.4 32.0301 20.71 32.1701 20.95ZM12.8401 11.82V28.74H6.84008V11.82H12.8401Z" fill="#ffffff"/>
<path d="M9.5303 27.2299H9.8403C10.6703 27.2299 11.3703 26.6399 11.5003 25.8199C11.5703 25.3499 11.4803 24.9099 11.2403 24.5599C10.9803 24.1699 10.5903 23.9199 10.1503 23.8599C9.2003 23.7399 8.3703 24.3199 8.1803 25.2699C8.1103 25.7399 8.2003 26.1799 8.4403 26.5299C8.7003 26.9099 9.0803 27.1599 9.5303 27.2299ZM9.3803 25.3999C9.3803 25.2099 9.5903 25.0599 9.8403 25.0599H9.9303C10.0803 25.1099 10.1703 25.1499 10.1903 25.2299L10.2303 25.2999C10.2903 25.3599 10.2903 25.5699 10.3003 25.6599C10.2603 25.9099 10.0203 26.0799 9.7803 26.0399C9.6203 25.9899 9.5203 25.9499 9.4903 25.8599L9.4503 25.7899C9.3803 25.7299 9.3803 25.5199 9.3803 25.3999Z" fill="#ffffff"/>
</svg>
